<svg width="781" height="164" viewBox="0 0 781 164" fill="none" xmlns="http://www.w3.org/2000/svg">
<path d="M107.12 112V30.8H126.028L159.668 86.016H149.692L182.404 30.8H201.312L201.544 112H180.432L180.2 62.932H183.796L159.32 103.996H149.112L123.94 62.932H128.348V112H107.12ZM272.084 30.8H295.052V112H272.084V30.8ZM240.764 112H217.796V30.8H240.764V112ZM273.708 80.332H239.14V61.308H273.708V80.332ZM308.701 87.408V70.472H342.573V87.408H308.701ZM383.402 113.624C376.751 113.624 370.333 112.812 364.146 111.188C358.037 109.487 353.049 107.321 349.182 104.692L356.722 87.756C360.357 90.076 364.533 92.0093 369.25 93.556C374.045 95.0253 378.801 95.76 383.518 95.76C386.689 95.76 389.241 95.4893 391.174 94.948C393.107 94.3293 394.499 93.556 395.35 92.628C396.278 91.6227 396.742 90.4627 396.742 89.148C396.742 87.292 395.891 85.8227 394.19 84.74C392.489 83.6573 390.285 82.768 387.578 82.072C384.871 81.376 381.855 80.68 378.53 79.984C375.282 79.288 371.995 78.3987 368.67 77.316C365.422 76.2333 362.445 74.8413 359.738 73.14C357.031 71.3613 354.827 69.08 353.126 66.296C351.425 63.4347 350.574 59.8387 350.574 55.508C350.574 50.636 351.889 46.228 354.518 42.284C357.225 38.34 361.246 35.1693 366.582 32.772C371.918 30.3747 378.569 29.176 386.534 29.176C391.87 29.176 397.09 29.7947 402.194 31.032C407.375 32.192 411.977 33.932 415.998 36.252L408.922 53.304C405.055 51.216 401.227 49.6693 397.438 48.664C393.649 47.5813 389.975 47.04 386.418 47.04C383.247 47.04 380.695 47.388 378.762 48.084C376.829 48.7027 375.437 49.5533 374.586 50.636C373.735 51.7187 373.31 52.956 373.31 54.348C373.31 56.1267 374.122 57.5573 375.746 58.64C377.447 59.6453 379.651 60.496 382.358 61.192C385.142 61.8107 388.158 62.468 391.406 63.164C394.731 63.86 398.018 64.7493 401.266 65.832C404.591 66.8373 407.607 68.2293 410.314 70.008C413.021 71.7093 415.186 73.9907 416.81 76.852C418.511 79.636 419.362 83.1547 419.362 87.408C419.362 92.1253 418.009 96.4947 415.302 100.516C412.673 104.46 408.69 107.631 403.354 110.028C398.095 112.425 391.445 113.624 383.402 113.624ZM429.972 112V30.8H452.94V112H429.972ZM497.816 113.624C491.165 113.624 484.747 112.812 478.56 111.188C472.451 109.487 467.463 107.321 463.596 104.692L471.136 87.756C474.771 90.076 478.947 92.0093 483.664 93.556C488.459 95.0253 493.215 95.76 497.932 95.76C501.103 95.76 503.655 95.4893 505.588 94.948C507.521 94.3293 508.913 93.556 509.764 92.628C510.692 91.6227 511.156 90.4627 511.156 89.148C511.156 87.292 510.305 85.8227 508.604 84.74C506.903 83.6573 504.699 82.768 501.992 82.072C499.285 81.376 496.269 80.68 492.944 79.984C489.696 79.288 486.409 78.3987 483.084 77.316C479.836 76.2333 476.859 74.8413 474.152 73.14C471.445 71.3613 469.241 69.08 467.54 66.296C465.839 63.4347 464.988 59.8387 464.988 55.508C464.988 50.636 466.303 46.228 468.932 42.284C471.639 38.34 475.66 35.1693 480.996 32.772C486.332 30.3747 492.983 29.176 500.948 29.176C506.284 29.176 511.504 29.7947 516.608 31.032C521.789 32.192 526.391 33.932 530.412 36.252L523.336 53.304C519.469 51.216 515.641 49.6693 511.852 48.664C508.063 47.5813 504.389 47.04 500.832 47.04C497.661 47.04 495.109 47.388 493.176 48.084C491.243 48.7027 489.851 49.5533 489 50.636C488.149 51.7187 487.724 52.956 487.724 54.348C487.724 56.1267 488.536 57.5573 490.16 58.64C491.861 59.6453 494.065 60.496 496.772 61.192C499.556 61.8107 502.572 62.468 505.82 63.164C509.145 63.86 512.432 64.7493 515.68 65.832C519.005 66.8373 522.021 68.2293 524.728 70.008C527.435 71.7093 529.6 73.9907 531.224 76.852C532.925 79.636 533.776 83.1547 533.776 87.408C533.776 92.1253 532.423 96.4947 529.716 100.516C527.087 104.46 523.104 107.631 517.768 110.028C512.509 112.425 505.859 113.624 497.816 113.624ZM565.498 62.236H603.198V79.404H565.498V62.236ZM567.122 94.252H609.578V112H544.386V30.8H608.07V48.548H567.122V94.252Z" fill="black"/>
<rect x="19" y="53" width="16" height="16" fill="#3F7DAE"/>
<rect y="53" width="16" height="16" fill="#3F7DAE"/>
<rect y="72" width="16" height="16" fill="#3F7DAE"/>
<rect x="38" y="34" width="16" height="16" fill="#3F7DAE"/>
<rect x="38" y="53" width="16" height="16" fill="#3F7DAE"/>
<rect x="57" y="53" width="16" height="16" fill="#FFDC52"/>
<rect x="57" y="72" width="16" height="16" fill="#FFDC52"/>
<rect x="38" y="72" width="16" height="16" fill="#FFDC52"/>
<rect x="19" y="72" width="16" height="16" fill="#FFDC52"/>
<rect x="19" y="91" width="16" height="16" fill="#FFDC52"/>
<path fill-rule="evenodd" clip-rule="evenodd" d="M35 34H19V50H35V34ZM27 46C29.209 46 31 44.2092 31 42C31 39.7908 29.209 38 27 38C24.791 38 23 39.7908 23 42C23 44.2092 24.791 46 27 46Z" fill="#3F7DAE"/>
<path fill-rule="evenodd" clip-rule="evenodd" d="M54 91H38V107H54V91ZM46 103C48.209 103 50 101.209 50 99C50 96.7908 48.209 95 46 95C43.791 95 42 96.7908 42 99C42 101.209 43.791 103 46 103Z" fill="#FFDC52"/>
<path d="M1.032 160L6.152 148.8H7.32L12.44 160H11.192L6.488 149.488H6.968L2.264 160H1.032ZM3.048 157.008L3.4 156.048H9.912L10.264 157.008H3.048ZM18.4803 160V148.8H22.6723C23.6216 148.8 24.4376 148.955 25.1203 149.264C25.8029 149.563 26.3256 150 26.6883 150.576C27.0616 151.141 27.2483 151.829 27.2483 152.64C27.2483 153.429 27.0616 154.112 26.6883 154.688C26.3256 155.253 25.8029 155.691 25.1203 156C24.4376 156.309 23.6216 156.464 22.6723 156.464H19.1363L19.6643 155.904V160H18.4803ZM19.6643 156L19.1363 155.424H22.6403C23.7603 155.424 24.6083 155.184 25.1843 154.704C25.7709 154.213 26.0642 153.525 26.0642 152.64C26.0642 151.744 25.7709 151.051 25.1843 150.56C24.6083 150.069 23.7603 149.824 22.6403 149.824H19.1363L19.6643 149.264V156ZM32.4804 160V155.84L32.7524 156.576L28.0004 148.8H29.2644L33.4404 155.632H32.7684L36.9444 148.8H38.1284L33.3764 156.576L33.6484 155.84V160H32.4804ZM42.0625 160V149.824H38.1265V148.8H47.1825V149.824H43.2465V160H42.0625ZM57.266 148.8H58.434V160H57.266V148.8ZM50.258 160H49.074V148.8H50.258V160ZM57.378 154.832H50.13V153.792H57.378V154.832ZM66.9856 160.096C66.143 160.096 65.359 159.957 64.6336 159.68C63.919 159.392 63.295 158.992 62.7616 158.48C62.239 157.957 61.8283 157.355 61.5296 156.672C61.2416 155.979 61.0976 155.221 61.0976 154.4C61.0976 153.579 61.2416 152.827 61.5296 152.144C61.8283 151.451 62.239 150.848 62.7616 150.336C63.295 149.813 63.919 149.413 64.6336 149.136C65.3483 148.848 66.1323 148.704 66.9856 148.704C67.8283 148.704 68.607 148.848 69.3216 149.136C70.0363 149.413 70.655 149.808 71.1776 150.32C71.711 150.832 72.1216 151.435 72.4096 152.128C72.7083 152.821 72.8576 153.579 72.8576 154.4C72.8576 155.221 72.7083 155.979 72.4096 156.672C72.1216 157.365 71.711 157.968 71.1776 158.48C70.655 158.992 70.0363 159.392 69.3216 159.68C68.607 159.957 67.8283 160.096 66.9856 160.096ZM66.9856 159.04C67.6576 159.04 68.2763 158.928 68.8416 158.704C69.4176 158.469 69.9136 158.144 70.3296 157.728C70.7563 157.301 71.087 156.811 71.3216 156.256C71.5563 155.691 71.6736 155.072 71.6736 154.4C71.6736 153.728 71.5563 153.115 71.3216 152.56C71.087 151.995 70.7563 151.504 70.3296 151.088C69.9136 150.661 69.4176 150.336 68.8416 150.112C68.2763 149.877 67.6576 149.76 66.9856 149.76C66.3136 149.76 65.6896 149.877 65.1136 150.112C64.5376 150.336 64.0363 150.661 63.6096 151.088C63.1936 151.504 62.863 151.995 62.6176 152.56C62.383 153.115 62.2656 153.728 62.2656 154.4C62.2656 155.061 62.383 155.675 62.6176 156.24C62.863 156.805 63.1936 157.301 63.6096 157.728C64.0363 158.144 64.5376 158.469 65.1136 158.704C65.6896 158.928 66.3136 159.04 66.9856 159.04ZM75.5115 160V148.8H76.4875L84.2155 158.528H83.7035V148.8H84.8715V160H83.8955L76.1835 150.272H76.6955V160H75.5115ZM92.7146 160V148.8H96.9066C97.856 148.8 98.672 148.955 99.3546 149.264C100.037 149.563 100.56 150 100.923 150.576C101.296 151.141 101.483 151.829 101.483 152.64C101.483 153.429 101.296 154.112 100.923 154.688C100.56 155.253 100.037 155.691 99.3546 156C98.672 156.309 97.856 156.464 96.9066 156.464H93.3706L93.8986 155.904V160H92.7146ZM93.8986 156L93.3706 155.424H96.8746C97.9946 155.424 98.8426 155.184 99.4186 154.704C100.005 154.213 100.299 153.525 100.299 152.64C100.299 151.744 100.005 151.051 99.4186 150.56C98.8426 150.069 97.9946 149.824 96.8746 149.824H93.3706L93.8986 149.264V156ZM101.688 160L106.808 148.8H107.976L113.096 160H111.848L107.144 149.488H107.624L102.92 160H101.688ZM103.704 157.008L104.056 156.048H110.568L110.92 157.008H103.704ZM119.657 160.096C118.814 160.096 118.035 159.957 117.321 159.68C116.606 159.392 115.987 158.992 115.465 158.48C114.942 157.968 114.531 157.365 114.233 156.672C113.945 155.979 113.801 155.221 113.801 154.4C113.801 153.579 113.945 152.821 114.233 152.128C114.531 151.435 114.942 150.832 115.465 150.32C115.998 149.808 116.622 149.413 117.337 149.136C118.051 148.848 118.83 148.704 119.673 148.704C120.483 148.704 121.246 148.843 121.961 149.12C122.675 149.387 123.278 149.792 123.769 150.336L123.017 151.088C122.558 150.619 122.051 150.283 121.497 150.08C120.942 149.867 120.345 149.76 119.705 149.76C119.033 149.76 118.409 149.877 117.833 150.112C117.257 150.336 116.755 150.661 116.329 151.088C115.902 151.504 115.566 151.995 115.321 152.56C115.086 153.115 114.969 153.728 114.969 154.4C114.969 155.072 115.086 155.691 115.321 156.256C115.566 156.811 115.902 157.301 116.329 157.728C116.755 158.144 117.257 158.469 117.833 158.704C118.409 158.928 119.033 159.04 119.705 159.04C120.345 159.04 120.942 158.933 121.497 158.72C122.051 158.507 122.558 158.165 123.017 157.696L123.769 158.448C123.278 158.992 122.675 159.403 121.961 159.68C121.246 159.957 120.478 160.096 119.657 160.096ZM127.317 157.216L127.269 155.776L134.053 148.8H135.413L130.469 153.984L129.797 154.704L127.317 157.216ZM126.293 160V148.8H127.477V160H126.293ZM134.341 160L129.509 154.432L130.309 153.568L135.749 160H134.341ZM135.438 160L140.558 148.8H141.726L146.846 160H145.598L140.894 149.488H141.374L136.67 160H135.438ZM137.454 157.008L137.806 156.048H144.318L144.67 157.008H137.454ZM153.455 160.096C152.601 160.096 151.812 159.957 151.087 159.68C150.372 159.392 149.748 158.992 149.215 158.48C148.692 157.968 148.281 157.365 147.983 156.672C147.695 155.979 147.551 155.221 147.551 154.4C147.551 153.579 147.695 152.821 147.983 152.128C148.281 151.435 148.697 150.832 149.231 150.32C149.764 149.808 150.388 149.413 151.103 149.136C151.828 148.848 152.617 148.704 153.471 148.704C154.324 148.704 155.103 148.837 155.807 149.104C156.521 149.371 157.129 149.776 157.631 150.32L156.895 151.072C156.425 150.603 155.908 150.267 155.343 150.064C154.777 149.861 154.169 149.76 153.519 149.76C152.825 149.76 152.185 149.877 151.599 150.112C151.023 150.336 150.516 150.661 150.079 151.088C149.652 151.504 149.316 151.995 149.071 152.56C148.836 153.115 148.719 153.728 148.719 154.4C148.719 155.061 148.836 155.675 149.071 156.24C149.316 156.805 149.652 157.301 150.079 157.728C150.516 158.144 151.023 158.469 151.599 158.704C152.185 158.928 152.82 159.04 153.503 159.04C154.143 159.04 154.745 158.944 155.311 158.752C155.887 158.56 156.415 158.235 156.895 157.776L157.567 158.672C157.033 159.141 156.409 159.499 155.695 159.744C154.98 159.979 154.233 160.096 153.455 160.096ZM156.431 158.528V154.4H157.567V158.672L156.431 158.528ZM161.974 153.808H167.894V154.816H161.974V153.808ZM162.102 158.976H168.838V160H160.918V148.8H168.598V149.824H162.102V158.976ZM176.864 154.224H182.784V155.248H176.864V154.224ZM176.992 160H175.808V148.8H183.488V149.824H176.992V160ZM190.689 160.096C189.846 160.096 189.062 159.957 188.337 159.68C187.622 159.392 186.998 158.992 186.465 158.48C185.942 157.957 185.531 157.355 185.233 156.672C184.945 155.979 184.801 155.221 184.801 154.4C184.801 153.579 184.945 152.827 185.233 152.144C185.531 151.451 185.942 150.848 186.465 150.336C186.998 149.813 187.622 149.413 188.337 149.136C189.051 148.848 189.835 148.704 190.689 148.704C191.531 148.704 192.31 148.848 193.025 149.136C193.739 149.413 194.358 149.808 194.881 150.32C195.414 150.832 195.825 151.435 196.113 152.128C196.411 152.821 196.561 153.579 196.561 154.4C196.561 155.221 196.411 155.979 196.113 156.672C195.825 157.365 195.414 157.968 194.881 158.48C194.358 158.992 193.739 159.392 193.025 159.68C192.31 159.957 191.531 160.096 190.689 160.096ZM190.689 159.04C191.361 159.04 191.979 158.928 192.545 158.704C193.121 158.469 193.617 158.144 194.033 157.728C194.459 157.301 194.79 156.811 195.025 156.256C195.259 155.691 195.377 155.072 195.377 154.4C195.377 153.728 195.259 153.115 195.025 152.56C194.79 151.995 194.459 151.504 194.033 151.088C193.617 150.661 193.121 150.336 192.545 150.112C191.979 149.877 191.361 149.76 190.689 149.76C190.017 149.76 189.393 149.877 188.817 150.112C188.241 150.336 187.739 150.661 187.313 151.088C186.897 151.504 186.566 151.995 186.321 152.56C186.086 153.115 185.969 153.728 185.969 154.4C185.969 155.061 186.086 155.675 186.321 156.24C186.566 156.805 186.897 157.301 187.313 157.728C187.739 158.144 188.241 158.469 188.817 158.704C189.393 158.928 190.017 159.04 190.689 159.04ZM199.215 160V148.8H203.407C204.356 148.8 205.172 148.955 205.855 149.264C206.537 149.563 207.06 150 207.423 150.576C207.796 151.141 207.983 151.829 207.983 152.64C207.983 153.429 207.796 154.112 207.423 154.688C207.06 155.253 206.537 155.691 205.855 156C205.172 156.299 204.356 156.448 203.407 156.448H199.871L200.399 155.904V160H199.215ZM206.863 160L203.983 155.936H205.263L208.159 160H206.863ZM200.399 156L199.871 155.44H203.375C204.495 155.44 205.343 155.195 205.919 154.704C206.505 154.213 206.799 153.525 206.799 152.64C206.799 151.744 206.505 151.051 205.919 150.56C205.343 150.069 204.495 149.824 203.375 149.824H199.871L200.399 149.264V156ZM214.261 160V148.8H216.869L221.509 156.416H220.133L224.645 148.8H227.253L227.285 160H224.373L224.341 153.232H224.837L221.461 158.896H220.053L216.581 153.232H217.189V160H214.261ZM235.174 160.224C234.278 160.224 233.452 160.08 232.694 159.792C231.937 159.504 231.276 159.099 230.71 158.576C230.156 158.043 229.724 157.424 229.414 156.72C229.105 156.016 228.95 155.243 228.95 154.4C228.95 153.557 229.105 152.784 229.414 152.08C229.724 151.376 230.156 150.763 230.71 150.24C231.276 149.707 231.937 149.296 232.694 149.008C233.452 148.72 234.278 148.576 235.174 148.576C236.081 148.576 236.908 148.72 237.654 149.008C238.412 149.296 239.068 149.707 239.622 150.24C240.177 150.763 240.609 151.376 240.918 152.08C241.238 152.784 241.398 153.557 241.398 154.4C241.398 155.243 241.238 156.021 240.918 156.736C240.609 157.44 240.177 158.053 239.622 158.576C239.068 159.099 238.412 159.504 237.654 159.792C236.908 160.08 236.081 160.224 235.174 160.224ZM235.174 157.6C235.601 157.6 235.996 157.525 236.358 157.376C236.732 157.227 237.052 157.013 237.318 156.736C237.596 156.448 237.809 156.107 237.958 155.712C238.118 155.317 238.198 154.88 238.198 154.4C238.198 153.909 238.118 153.472 237.958 153.088C237.809 152.693 237.596 152.357 237.318 152.08C237.052 151.792 236.732 151.573 236.358 151.424C235.996 151.275 235.601 151.2 235.174 151.2C234.748 151.2 234.348 151.275 233.974 151.424C233.612 151.573 233.292 151.792 233.014 152.08C232.748 152.357 232.534 152.693 232.374 153.088C232.225 153.472 232.15 153.909 232.15 154.4C232.15 154.88 232.225 155.317 232.374 155.712C232.534 156.107 232.748 156.448 233.014 156.736C233.292 157.013 233.612 157.227 233.974 157.376C234.348 157.525 234.748 157.6 235.174 157.6ZM246.123 160L241.338 148.8H244.763L248.795 158.496H246.779L250.907 148.8H254.043L249.243 160H246.123ZM254.698 160V148.8H257.866V160H254.698ZM260.12 160V148.8H262.728L268.904 156.256H267.672V148.8H270.776V160H268.168L261.992 152.544H263.224V160H260.12ZM278.611 160.224C277.725 160.224 276.904 160.085 276.147 159.808C275.389 159.52 274.733 159.115 274.179 158.592C273.635 158.069 273.208 157.456 272.899 156.752C272.589 156.037 272.435 155.253 272.435 154.4C272.435 153.547 272.589 152.768 272.899 152.064C273.208 151.349 273.64 150.731 274.195 150.208C274.749 149.685 275.405 149.285 276.163 149.008C276.931 148.72 277.768 148.576 278.675 148.576C279.731 148.576 280.675 148.752 281.507 149.104C282.339 149.456 283.027 149.963 283.571 150.624L281.555 152.448C281.171 152.032 280.755 151.723 280.307 151.52C279.869 151.307 279.379 151.2 278.835 151.2C278.355 151.2 277.917 151.275 277.523 151.424C277.128 151.573 276.792 151.792 276.515 152.08C276.237 152.357 276.019 152.693 275.859 153.088C275.709 153.472 275.635 153.909 275.635 154.4C275.635 154.869 275.709 155.301 275.859 155.696C276.019 156.091 276.237 156.432 276.515 156.72C276.792 156.997 277.123 157.216 277.507 157.376C277.901 157.525 278.333 157.6 278.803 157.6C279.272 157.6 279.731 157.525 280.179 157.376C280.627 157.216 281.08 156.949 281.539 156.576L283.315 158.8C282.675 159.259 281.933 159.611 281.091 159.856C280.248 160.101 279.421 160.224 278.611 160.224ZM280.515 158.384V154.16H283.315V158.8L280.515 158.384ZM284.971 156.608V154.272H289.643V156.608H284.971ZM299.014 148.8H302.182V160H299.014V148.8ZM294.694 160H291.526V148.8H294.694V160ZM299.238 155.632H294.47V153.008H299.238V155.632ZM310.065 160.224C309.169 160.224 308.342 160.08 307.585 159.792C306.828 159.504 306.166 159.099 305.601 158.576C305.046 158.043 304.614 157.424 304.305 156.72C303.996 156.016 303.841 155.243 303.841 154.4C303.841 153.557 303.996 152.784 304.305 152.08C304.614 151.376 305.046 150.763 305.601 150.24C306.166 149.707 306.828 149.296 307.585 149.008C308.342 148.72 309.169 148.576 310.065 148.576C310.972 148.576 311.798 148.72 312.545 149.008C313.302 149.296 313.958 149.707 314.513 150.24C315.068 150.763 315.5 151.376 315.809 152.08C316.129 152.784 316.289 153.557 316.289 154.4C316.289 155.243 316.129 156.021 315.809 156.736C315.5 157.44 315.068 158.053 314.513 158.576C313.958 159.099 313.302 159.504 312.545 159.792C311.798 160.08 310.972 160.224 310.065 160.224ZM310.065 157.6C310.492 157.6 310.886 157.525 311.249 157.376C311.622 157.227 311.942 157.013 312.209 156.736C312.486 156.448 312.7 156.107 312.849 155.712C313.009 155.317 313.089 154.88 313.089 154.4C313.089 153.909 313.009 153.472 312.849 153.088C312.7 152.693 312.486 152.357 312.209 152.08C311.942 151.792 311.622 151.573 311.249 151.424C310.886 151.275 310.492 151.2 310.065 151.2C309.638 151.2 309.238 151.275 308.865 151.424C308.502 151.573 308.182 151.792 307.905 152.08C307.638 152.357 307.425 152.693 307.265 153.088C307.116 153.472 307.041 153.909 307.041 154.4C307.041 154.88 307.116 155.317 307.265 155.712C307.425 156.107 307.638 156.448 307.905 156.736C308.182 157.013 308.502 157.227 308.865 157.376C309.238 157.525 309.638 157.6 310.065 157.6ZM317.948 160V148.8H323.068C324.092 148.8 324.972 148.965 325.708 149.296C326.455 149.627 327.031 150.107 327.436 150.736C327.841 151.355 328.044 152.091 328.044 152.944C328.044 153.787 327.841 154.517 327.436 155.136C327.031 155.744 326.455 156.213 325.708 156.544C324.972 156.864 324.092 157.024 323.068 157.024H319.708L321.116 155.696V160H317.948ZM324.876 160L322.092 155.92H325.468L328.268 160H324.876ZM321.116 156.032L319.708 154.576H322.876C323.537 154.576 324.028 154.432 324.348 154.144C324.679 153.856 324.844 153.456 324.844 152.944C324.844 152.421 324.679 152.016 324.348 151.728C324.028 151.44 323.537 151.296 322.876 151.296H319.708L321.116 149.84V156.032ZM329.792 160V148.8H332.96V160H329.792ZM334.654 160V158.016L341.246 150.192L341.63 151.312H334.798V148.8H344.446V150.784L337.854 158.608L337.47 157.488H344.686V160H334.654ZM351.627 160.224C350.731 160.224 349.905 160.08 349.147 159.792C348.39 159.504 347.729 159.099 347.163 158.576C346.609 158.043 346.177 157.424 345.867 156.72C345.558 156.016 345.403 155.243 345.403 154.4C345.403 153.557 345.558 152.784 345.867 152.08C346.177 151.376 346.609 150.763 347.163 150.24C347.729 149.707 348.39 149.296 349.147 149.008C349.905 148.72 350.731 148.576 351.627 148.576C352.534 148.576 353.361 148.72 354.107 149.008C354.865 149.296 355.521 149.707 356.075 150.24C356.63 150.763 357.062 151.376 357.371 152.08C357.691 152.784 357.851 153.557 357.851 154.4C357.851 155.243 357.691 156.021 357.371 156.736C357.062 157.44 356.63 158.053 356.075 158.576C355.521 159.099 354.865 159.504 354.107 159.792C353.361 160.08 352.534 160.224 351.627 160.224ZM351.627 157.6C352.054 157.6 352.449 157.525 352.811 157.376C353.185 157.227 353.505 157.013 353.771 156.736C354.049 156.448 354.262 156.107 354.411 155.712C354.571 155.317 354.651 154.88 354.651 154.4C354.651 153.909 354.571 153.472 354.411 153.088C354.262 152.693 354.049 152.357 353.771 152.08C353.505 151.792 353.185 151.573 352.811 151.424C352.449 151.275 352.054 151.2 351.627 151.2C351.201 151.2 350.801 151.275 350.427 151.424C350.065 151.573 349.745 151.792 349.467 152.08C349.201 152.357 348.987 152.693 348.827 153.088C348.678 153.472 348.603 153.909 348.603 154.4C348.603 154.88 348.678 155.317 348.827 155.712C348.987 156.107 349.201 156.448 349.467 156.736C349.745 157.013 350.065 157.227 350.427 157.376C350.801 157.525 351.201 157.6 351.627 157.6ZM359.511 160V148.8H362.119L368.295 156.256H367.063V148.8H370.167V160H367.559L361.383 152.544H362.615V160H359.511ZM380.994 160.224C380.076 160.224 379.191 160.112 378.338 159.888C377.495 159.653 376.807 159.355 376.274 158.992L377.314 156.656C377.815 156.976 378.391 157.243 379.042 157.456C379.703 157.659 380.359 157.76 381.01 157.76C381.447 157.76 381.799 157.723 382.066 157.648C382.332 157.563 382.524 157.456 382.642 157.328C382.77 157.189 382.834 157.029 382.834 156.848C382.834 156.592 382.716 156.389 382.482 156.24C382.247 156.091 381.943 155.968 381.57 155.872C381.196 155.776 380.78 155.68 380.322 155.584C379.874 155.488 379.42 155.365 378.962 155.216C378.514 155.067 378.103 154.875 377.73 154.64C377.356 154.395 377.052 154.08 376.818 153.696C376.583 153.301 376.465 152.805 376.465 152.208C376.465 151.536 376.647 150.928 377.01 150.384C377.383 149.84 377.938 149.403 378.674 149.072C379.41 148.741 380.327 148.576 381.426 148.576C382.162 148.576 382.882 148.661 383.586 148.832C384.3 148.992 384.935 149.232 385.49 149.552L384.514 151.904C383.98 151.616 383.452 151.403 382.93 151.264C382.407 151.115 381.9 151.04 381.41 151.04C380.972 151.04 380.62 151.088 380.354 151.184C380.087 151.269 379.895 151.387 379.778 151.536C379.66 151.685 379.602 151.856 379.602 152.048C379.602 152.293 379.714 152.491 379.938 152.64C380.172 152.779 380.476 152.896 380.85 152.992C381.234 153.077 381.65 153.168 382.098 153.264C382.556 153.36 383.01 153.483 383.458 153.632C383.916 153.771 384.332 153.963 384.706 154.208C385.079 154.443 385.378 154.757 385.602 155.152C385.836 155.536 385.954 156.021 385.954 156.608C385.954 157.259 385.767 157.861 385.394 158.416C385.031 158.96 384.482 159.397 383.746 159.728C383.02 160.059 382.103 160.224 380.994 160.224ZM387.417 160V148.8H390.585V160H387.417ZM392.839 160V148.8H395.447L400.087 156.416H398.711L403.223 148.8H405.831L405.863 160H402.951L402.919 153.232H403.415L400.039 158.896H398.631L395.159 153.232H395.767V160H392.839ZM413.272 160.224C411.619 160.224 410.328 159.771 409.4 158.864C408.472 157.957 408.008 156.672 408.008 155.008V148.8H411.176V154.912C411.176 155.872 411.363 156.56 411.736 156.976C412.12 157.392 412.643 157.6 413.304 157.6C413.966 157.6 414.483 157.392 414.856 156.976C415.23 156.56 415.416 155.872 415.416 154.912V148.8H418.536V155.008C418.536 156.672 418.072 157.957 417.144 158.864C416.216 159.771 414.926 160.224 413.272 160.224ZM420.683 160V148.8H423.851V157.488H429.195V160H420.683ZM431.785 160V151.312H428.345V148.8H438.377V151.312H434.953V160H431.785ZM437.651 160L442.595 148.8H445.715L450.675 160H447.379L443.507 150.352H444.755L440.883 160H437.651ZM440.355 157.824L441.171 155.488H446.643L447.459 157.824H440.355ZM451.573 160V148.8H454.181L460.357 156.256H459.125V148.8H462.229V160H459.621L453.445 152.544H454.677V160H451.573ZM467.376 153.136H472.576V155.504H467.376V153.136ZM467.6 157.552H473.456V160H464.464V148.8H473.248V151.248H467.6V157.552ZM480.862 160.224C479.966 160.224 479.139 160.08 478.382 159.792C477.624 159.504 476.963 159.099 476.398 158.576C475.843 158.043 475.411 157.424 475.102 156.72C474.792 156.016 474.638 155.243 474.638 154.4C474.638 153.557 474.792 152.784 475.102 152.08C475.411 151.376 475.843 150.763 476.398 150.24C476.963 149.707 477.624 149.296 478.382 149.008C479.139 148.72 479.966 148.576 480.862 148.576C481.768 148.576 482.595 148.72 483.342 149.008C484.099 149.296 484.755 149.707 485.31 150.24C485.864 150.763 486.296 151.376 486.606 152.08C486.926 152.784 487.086 153.557 487.086 154.4C487.086 155.243 486.926 156.021 486.606 156.736C486.296 157.44 485.864 158.053 485.31 158.576C484.755 159.099 484.099 159.504 483.342 159.792C482.595 160.08 481.768 160.224 480.862 160.224ZM480.862 157.6C481.288 157.6 481.683 157.525 482.046 157.376C482.419 157.227 482.739 157.013 483.006 156.736C483.283 156.448 483.496 156.107 483.646 155.712C483.806 155.317 483.886 154.88 483.886 154.4C483.886 153.909 483.806 153.472 483.646 153.088C483.496 152.693 483.283 152.357 483.006 152.08C482.739 151.792 482.419 151.573 482.046 151.424C481.683 151.275 481.288 151.2 480.862 151.2C480.435 151.2 480.035 151.275 479.662 151.424C479.299 151.573 478.979 151.792 478.702 152.08C478.435 152.357 478.222 152.693 478.062 153.088C477.912 153.472 477.838 153.909 477.838 154.4C477.838 154.88 477.912 155.317 478.062 155.712C478.222 156.107 478.435 156.448 478.702 156.736C478.979 157.013 479.299 157.227 479.662 157.376C480.035 157.525 480.435 157.6 480.862 157.6ZM493.913 160.224C492.26 160.224 490.969 159.771 490.041 158.864C489.113 157.957 488.649 156.672 488.649 155.008V148.8H491.817V154.912C491.817 155.872 492.004 156.56 492.377 156.976C492.761 157.392 493.284 157.6 493.945 157.6C494.606 157.6 495.124 157.392 495.497 156.976C495.87 156.56 496.057 155.872 496.057 154.912V148.8H499.177V155.008C499.177 156.672 498.713 157.957 497.785 158.864C496.857 159.771 495.566 160.224 493.913 160.224ZM505.259 160.224C504.342 160.224 503.456 160.112 502.603 159.888C501.76 159.653 501.072 159.355 500.539 158.992L501.579 156.656C502.08 156.976 502.656 157.243 503.307 157.456C503.968 157.659 504.624 157.76 505.275 157.76C505.712 157.76 506.064 157.723 506.331 157.648C506.598 157.563 506.79 157.456 506.907 157.328C507.035 157.189 507.099 157.029 507.099 156.848C507.099 156.592 506.982 156.389 506.747 156.24C506.512 156.091 506.208 155.968 505.835 155.872C505.462 155.776 505.046 155.68 504.587 155.584C504.139 155.488 503.686 155.365 503.227 155.216C502.779 155.067 502.368 154.875 501.995 154.64C501.622 154.395 501.318 154.08 501.083 153.696C500.848 153.301 500.731 152.805 500.731 152.208C500.731 151.536 500.912 150.928 501.275 150.384C501.648 149.84 502.203 149.403 502.939 149.072C503.675 148.741 504.592 148.576 505.691 148.576C506.427 148.576 507.147 148.661 507.851 148.832C508.566 148.992 509.2 149.232 509.755 149.552L508.779 151.904C508.246 151.616 507.718 151.403 507.195 151.264C506.672 151.115 506.166 151.04 505.675 151.04C505.238 151.04 504.886 151.088 504.619 151.184C504.352 151.269 504.16 151.387 504.043 151.536C503.926 151.685 503.867 151.856 503.867 152.048C503.867 152.293 503.979 152.491 504.203 152.64C504.438 152.779 504.742 152.896 505.115 152.992C505.499 153.077 505.915 153.168 506.363 153.264C506.822 153.36 507.275 153.483 507.723 153.632C508.182 153.771 508.598 153.963 508.971 154.208C509.344 154.443 509.643 154.757 509.867 155.152C510.102 155.536 510.219 156.021 510.219 156.608C510.219 157.259 510.032 157.861 509.659 158.416C509.296 158.96 508.747 159.397 508.011 159.728C507.286 160.059 506.368 160.224 505.259 160.224ZM516.339 160V148.8H519.507V160H516.339ZM521.761 160V148.8H524.369L530.545 156.256H529.313V148.8H532.417V160H529.809L523.633 152.544H524.865V160H521.761ZM534.651 160V148.8H539.771C540.795 148.8 541.675 148.965 542.411 149.296C543.158 149.627 543.734 150.107 544.139 150.736C544.545 151.355 544.747 152.091 544.747 152.944C544.747 153.787 544.545 154.517 544.139 155.136C543.734 155.755 543.158 156.235 542.411 156.576C541.675 156.907 540.795 157.072 539.771 157.072H536.411L537.819 155.696V160H534.651ZM537.819 156.032L536.411 154.576H539.579C540.241 154.576 540.731 154.432 541.051 154.144C541.382 153.856 541.547 153.456 541.547 152.944C541.547 152.421 541.382 152.016 541.051 151.728C540.731 151.44 540.241 151.296 539.579 151.296H536.411L537.819 149.84V156.032ZM551.351 160.224C549.697 160.224 548.407 159.771 547.479 158.864C546.551 157.957 546.087 156.672 546.087 155.008V148.8H549.255V154.912C549.255 155.872 549.441 156.56 549.815 156.976C550.199 157.392 550.721 157.6 551.383 157.6C552.044 157.6 552.561 157.392 552.935 156.976C553.308 156.56 553.495 155.872 553.495 154.912V148.8H556.615V155.008C556.615 156.672 556.151 157.957 555.223 158.864C554.295 159.771 553.004 160.224 551.351 160.224ZM560.973 160V151.312H557.533V148.8H567.565V151.312H564.141V160H560.973ZM567.784 156.608V154.272H572.456V156.608H567.784ZM572.573 160L577.517 148.8H580.637L585.597 160H582.301L578.429 150.352H579.677L575.805 160H572.573ZM575.277 157.824L576.093 155.488H581.565L582.381 157.824H575.277ZM586.495 160V148.8H589.103L595.279 156.256H594.047V148.8H597.151V160H594.543L588.367 152.544H589.599V160H586.495ZM599.386 160V148.8H604.682C605.919 148.8 607.007 149.029 607.946 149.488C608.884 149.947 609.615 150.592 610.138 151.424C610.671 152.256 610.938 153.248 610.938 154.4C610.938 155.541 610.671 156.533 610.138 157.376C609.615 158.208 608.884 158.853 607.946 159.312C607.007 159.771 605.919 160 604.682 160H599.386ZM602.554 157.472H604.554C605.194 157.472 605.748 157.355 606.218 157.12C606.698 156.875 607.071 156.523 607.338 156.064C607.604 155.595 607.738 155.04 607.738 154.4C607.738 153.749 607.604 153.195 607.338 152.736C607.071 152.277 606.698 151.931 606.218 151.696C605.748 151.451 605.194 151.328 604.554 151.328H602.554V157.472ZM612.284 156.608V154.272H616.956V156.608H612.284ZM622.587 160.224C621.67 160.224 620.785 160.112 619.931 159.888C619.089 159.653 618.401 159.355 617.867 158.992L618.907 156.656C619.409 156.976 619.985 157.243 620.635 157.456C621.297 157.659 621.953 157.76 622.603 157.76C623.041 157.76 623.393 157.723 623.659 157.648C623.926 157.563 624.118 157.456 624.235 157.328C624.363 157.189 624.427 157.029 624.427 156.848C624.427 156.592 624.31 156.389 624.075 156.24C623.841 156.091 623.537 155.968 623.163 155.872C622.79 155.776 622.374 155.68 621.915 155.584C621.467 155.488 621.014 155.365 620.555 155.216C620.107 155.067 619.697 154.875 619.323 154.64C618.95 154.395 618.646 154.08 618.411 153.696C618.177 153.301 618.059 152.805 618.059 152.208C618.059 151.536 618.241 150.928 618.603 150.384C618.977 149.84 619.531 149.403 620.267 149.072C621.003 148.741 621.921 148.576 623.019 148.576C623.755 148.576 624.475 148.661 625.179 148.832C625.894 148.992 626.529 149.232 627.083 149.552L626.107 151.904C625.574 151.616 625.046 151.403 624.523 151.264C624.001 151.115 623.494 151.04 623.003 151.04C622.566 151.04 622.214 151.088 621.947 151.184C621.681 151.269 621.489 151.387 621.371 151.536C621.254 151.685 621.195 151.856 621.195 152.048C621.195 152.293 621.307 152.491 621.531 152.64C621.766 152.779 622.07 152.896 622.443 152.992C622.827 153.077 623.243 153.168 623.691 153.264C624.15 153.36 624.603 153.483 625.051 153.632C625.51 153.771 625.926 153.963 626.299 154.208C626.673 154.443 626.971 154.757 627.195 155.152C627.43 155.536 627.547 156.021 627.547 156.608C627.547 157.259 627.361 157.861 626.987 158.416C626.625 158.96 626.075 159.397 625.339 159.728C624.614 160.059 623.697 160.224 622.587 160.224ZM631.238 160V151.312H627.798V148.8H637.83V151.312H634.406V160H631.238ZM637.104 160L642.048 148.8H645.168L650.128 160H646.832L642.96 150.352H644.208L640.336 160H637.104ZM639.808 157.824L640.624 155.488H646.096L646.912 157.824H639.808ZM652.848 160V151.312H649.408V148.8H659.44V151.312H656.016V160H652.848ZM663.532 153.136H668.732V155.504H663.532V153.136ZM663.756 157.552H669.612V160H660.62V148.8H669.404V151.248H663.756V157.552ZM678.938 153.136H684.138V155.504H678.938V153.136ZM679.162 157.552H685.018V160H676.026V148.8H684.81V151.248H679.162V157.552ZM690.712 160.224C689.795 160.224 688.91 160.112 688.056 159.888C687.214 159.653 686.526 159.355 685.992 158.992L687.032 156.656C687.534 156.976 688.11 157.243 688.76 157.456C689.422 157.659 690.078 157.76 690.728 157.76C691.166 157.76 691.518 157.723 691.784 157.648C692.051 157.563 692.243 157.456 692.36 157.328C692.488 157.189 692.552 157.029 692.552 156.848C692.552 156.592 692.435 156.389 692.2 156.24C691.966 156.091 691.662 155.968 691.288 155.872C690.915 155.776 690.499 155.68 690.04 155.584C689.592 155.488 689.139 155.365 688.68 155.216C688.232 155.067 687.822 154.875 687.448 154.64C687.075 154.395 686.771 154.08 686.536 153.696C686.302 153.301 686.184 152.805 686.184 152.208C686.184 151.536 686.366 150.928 686.728 150.384C687.102 149.84 687.656 149.403 688.392 149.072C689.128 148.741 690.046 148.576 691.144 148.576C691.88 148.576 692.6 148.661 693.304 148.832C694.019 148.992 694.654 149.232 695.208 149.552L694.232 151.904C693.699 151.616 693.171 151.403 692.648 151.264C692.126 151.115 691.619 151.04 691.128 151.04C690.691 151.04 690.339 151.088 690.072 151.184C689.806 151.269 689.614 151.387 689.496 151.536C689.379 151.685 689.32 151.856 689.32 152.048C689.32 152.293 689.432 152.491 689.656 152.64C689.891 152.779 690.195 152.896 690.568 152.992C690.952 153.077 691.368 153.168 691.816 153.264C692.275 153.36 692.728 153.483 693.176 153.632C693.635 153.771 694.051 153.963 694.424 154.208C694.798 154.443 695.096 154.757 695.32 155.152C695.555 155.536 695.672 156.021 695.672 156.608C695.672 157.259 695.486 157.861 695.112 158.416C694.75 158.96 694.2 159.397 693.464 159.728C692.739 160.059 691.822 160.224 690.712 160.224ZM699.363 160V151.312H695.923V148.8H705.955V151.312H702.531V160H699.363ZM707.136 160V148.8H710.304V160H707.136ZM712.558 160V148.8H715.166L719.806 156.416H718.43L722.942 148.8H725.55L725.582 160H722.67L722.638 153.232H723.134L719.758 158.896H718.35L714.878 153.232H715.486V160H712.558ZM726.479 160L731.423 148.8H734.543L739.503 160H736.207L732.335 150.352H733.583L729.711 160H726.479ZM729.183 157.824L729.999 155.488H735.471L736.287 157.824H729.183ZM742.223 160V151.312H738.783V148.8H748.815V151.312H745.391V160H742.223ZM749.995 160V148.8H753.163V160H749.995ZM761.065 160.224C760.169 160.224 759.342 160.08 758.585 159.792C757.828 159.504 757.166 159.099 756.601 158.576C756.046 158.043 755.614 157.424 755.305 156.72C754.996 156.016 754.841 155.243 754.841 154.4C754.841 153.557 754.996 152.784 755.305 152.08C755.614 151.376 756.046 150.763 756.601 150.24C757.166 149.707 757.828 149.296 758.585 149.008C759.342 148.72 760.169 148.576 761.065 148.576C761.972 148.576 762.798 148.72 763.545 149.008C764.302 149.296 764.958 149.707 765.513 150.24C766.068 150.763 766.5 151.376 766.809 152.08C767.129 152.784 767.289 153.557 767.289 154.4C767.289 155.243 767.129 156.021 766.809 156.736C766.5 157.44 766.068 158.053 765.513 158.576C764.958 159.099 764.302 159.504 763.545 159.792C762.798 160.08 761.972 160.224 761.065 160.224ZM761.065 157.6C761.492 157.6 761.886 157.525 762.249 157.376C762.622 157.227 762.942 157.013 763.209 156.736C763.486 156.448 763.7 156.107 763.849 155.712C764.009 155.317 764.089 154.88 764.089 154.4C764.089 153.909 764.009 153.472 763.849 153.088C763.7 152.693 763.486 152.357 763.209 152.08C762.942 151.792 762.622 151.573 762.249 151.424C761.886 151.275 761.492 151.2 761.065 151.2C760.638 151.2 760.238 151.275 759.865 151.424C759.502 151.573 759.182 151.792 758.905 152.08C758.638 152.357 758.425 152.693 758.265 153.088C758.116 153.472 758.041 153.909 758.041 154.4C758.041 154.88 758.116 155.317 758.265 155.712C758.425 156.107 758.638 156.448 758.905 156.736C759.182 157.013 759.502 157.227 759.865 157.376C760.238 157.525 760.638 157.6 761.065 157.6ZM768.948 160V148.8H771.556L777.732 156.256H776.5V148.8H779.604V160H776.996L770.82 152.544H772.052V160H768.948Z" fill="black"/>
</svg>
