<svg width="700" height="164" viewBox="0 0 700 164" fill="none" xmlns="http://www.w3.org/2000/svg">
<path d="M0.04 135L6.44 121H7.9L14.3 135H12.74L6.86 121.86H7.46L1.58 135H0.04ZM2.56 131.26L3 130.06H11.14L11.58 131.26H2.56ZM21.8503 135V121H27.0903C28.277 121 29.297 121.193 30.1503 121.58C31.0036 121.953 31.657 122.5 32.1103 123.22C32.577 123.927 32.8103 124.787 32.8103 125.8C32.8103 126.787 32.577 127.64 32.1103 128.36C31.657 129.067 31.0036 129.613 30.1503 130C29.297 130.387 28.277 130.58 27.0903 130.58H22.6703L23.3303 129.88V135H21.8503ZM23.3303 130L22.6703 129.28H27.0503C28.4503 129.28 29.5103 128.98 30.2303 128.38C30.9636 127.767 31.3303 126.907 31.3303 125.8C31.3303 124.68 30.9636 123.813 30.2303 123.2C29.5103 122.587 28.4503 122.28 27.0503 122.28H22.6703L23.3303 121.58V130ZM39.3505 135V129.8L39.6905 130.72L33.7505 121H35.3305L40.5505 129.54H39.7105L44.9305 121H46.4105L40.4705 130.72L40.8105 129.8V135H39.3505ZM51.3281 135V122.28H46.4081V121H57.7281V122.28H52.8081V135H51.3281ZM70.3325 121H71.7925V135H70.3325V121ZM61.5725 135H60.0925V121H61.5725V135ZM70.4725 128.54H61.4125V127.24H70.4725V128.54ZM82.482 135.12C81.4287 135.12 80.4487 134.947 79.542 134.6C78.6487 134.24 77.8687 133.74 77.202 133.1C76.5487 132.447 76.0354 131.693 75.662 130.84C75.302 129.973 75.122 129.027 75.122 128C75.122 126.973 75.302 126.033 75.662 125.18C76.0354 124.313 76.5487 123.56 77.202 122.92C77.8687 122.267 78.6487 121.767 79.542 121.42C80.4354 121.06 81.4154 120.88 82.482 120.88C83.5354 120.88 84.5087 121.06 85.402 121.42C86.2954 121.767 87.0687 122.26 87.722 122.9C88.3887 123.54 88.902 124.293 89.262 125.16C89.6354 126.027 89.822 126.973 89.822 128C89.822 129.027 89.6354 129.973 89.262 130.84C88.902 131.707 88.3887 132.46 87.722 133.1C87.0687 133.74 86.2954 134.24 85.402 134.6C84.5087 134.947 83.5354 135.12 82.482 135.12ZM82.482 133.8C83.322 133.8 84.0954 133.66 84.802 133.38C85.522 133.087 86.142 132.68 86.662 132.16C87.1954 131.627 87.6087 131.013 87.902 130.32C88.1954 129.613 88.342 128.84 88.342 128C88.342 127.16 88.1954 126.393 87.902 125.7C87.6087 124.993 87.1954 124.38 86.662 123.86C86.142 123.327 85.522 122.92 84.802 122.64C84.0954 122.347 83.322 122.2 82.482 122.2C81.642 122.2 80.862 122.347 80.142 122.64C79.422 122.92 78.7954 123.327 78.262 123.86C77.742 124.38 77.3287 124.993 77.022 125.7C76.7287 126.393 76.582 127.16 76.582 128C76.582 128.827 76.7287 129.593 77.022 130.3C77.3287 131.007 77.742 131.627 78.262 132.16C78.7954 132.68 79.422 133.087 80.142 133.38C80.862 133.66 81.642 133.8 82.482 133.8ZM93.1394 135V121H94.3594L104.019 133.16H103.379V121H104.839V135H103.619L93.9794 122.84H94.6194V135H93.1394ZM114.643 135V121H119.883C121.07 121 122.09 121.193 122.943 121.58C123.797 121.953 124.45 122.5 124.903 123.22C125.37 123.927 125.603 124.787 125.603 125.8C125.603 126.787 125.37 127.64 124.903 128.36C124.45 129.067 123.797 129.613 122.943 130C122.09 130.387 121.07 130.58 119.883 130.58H115.463L116.123 129.88V135H114.643ZM116.123 130L115.463 129.28H119.843C121.243 129.28 122.303 128.98 123.023 128.38C123.757 127.767 124.123 126.907 124.123 125.8C124.123 124.68 123.757 123.813 123.023 123.2C122.303 122.587 121.243 122.28 119.843 122.28H115.463L116.123 121.58V130ZM125.86 135L132.26 121H133.72L140.12 135H138.56L132.68 121.86H133.28L127.4 135H125.86ZM128.38 131.26L128.82 130.06H136.96L137.4 131.26H128.38ZM148.321 135.12C147.268 135.12 146.294 134.947 145.401 134.6C144.508 134.24 143.734 133.74 143.081 133.1C142.428 132.46 141.914 131.707 141.541 130.84C141.181 129.973 141.001 129.027 141.001 128C141.001 126.973 141.181 126.027 141.541 125.16C141.914 124.293 142.428 123.54 143.081 122.9C143.748 122.26 144.528 121.767 145.421 121.42C146.314 121.06 147.288 120.88 148.341 120.88C149.354 120.88 150.308 121.053 151.201 121.4C152.094 121.733 152.848 122.24 153.461 122.92L152.521 123.86C151.948 123.273 151.314 122.853 150.621 122.6C149.928 122.333 149.181 122.2 148.381 122.2C147.541 122.2 146.761 122.347 146.041 122.64C145.321 122.92 144.694 123.327 144.161 123.86C143.628 124.38 143.208 124.993 142.901 125.7C142.608 126.393 142.461 127.16 142.461 128C142.461 128.84 142.608 129.613 142.901 130.32C143.208 131.013 143.628 131.627 144.161 132.16C144.694 132.68 145.321 133.087 146.041 133.38C146.761 133.66 147.541 133.8 148.381 133.8C149.181 133.8 149.928 133.667 150.621 133.4C151.314 133.133 151.948 132.707 152.521 132.12L153.461 133.06C152.848 133.74 152.094 134.253 151.201 134.6C150.308 134.947 149.348 135.12 148.321 135.12ZM157.896 131.52L157.836 129.72L166.316 121H168.016L161.836 127.48L160.996 128.38L157.896 131.52ZM156.616 135V121H158.096V135H156.616ZM166.676 135L160.636 128.04L161.636 126.96L168.436 135H166.676ZM168.048 135L174.448 121H175.908L182.308 135H180.748L174.868 121.86H175.468L169.588 135H168.048ZM170.568 131.26L171.008 130.06H179.148L179.588 131.26H170.568ZM190.568 135.12C189.502 135.12 188.515 134.947 187.608 134.6C186.715 134.24 185.935 133.74 185.268 133.1C184.615 132.46 184.102 131.707 183.728 130.84C183.368 129.973 183.188 129.027 183.188 128C183.188 126.973 183.368 126.027 183.728 125.16C184.102 124.293 184.622 123.54 185.288 122.9C185.955 122.26 186.735 121.767 187.628 121.42C188.535 121.06 189.522 120.88 190.588 120.88C191.655 120.88 192.628 121.047 193.508 121.38C194.402 121.713 195.162 122.22 195.788 122.9L194.868 123.84C194.282 123.253 193.635 122.833 192.928 122.58C192.222 122.327 191.462 122.2 190.648 122.2C189.782 122.2 188.982 122.347 188.248 122.64C187.528 122.92 186.895 123.327 186.348 123.86C185.815 124.38 185.395 124.993 185.088 125.7C184.795 126.393 184.648 127.16 184.648 128C184.648 128.827 184.795 129.593 185.088 130.3C185.395 131.007 185.815 131.627 186.348 132.16C186.895 132.68 187.528 133.087 188.248 133.38C188.982 133.66 189.775 133.8 190.628 133.8C191.428 133.8 192.182 133.68 192.888 133.44C193.608 133.2 194.268 132.793 194.868 132.22L195.708 133.34C195.042 133.927 194.262 134.373 193.368 134.68C192.475 134.973 191.542 135.12 190.568 135.12ZM194.288 133.16V128H195.708V133.34L194.288 133.16ZM201.217 127.26H208.617V128.52H201.217V127.26ZM201.377 133.72H209.797V135H199.897V121H209.497V122.28H201.377V133.72ZM219.83 127.78H227.23V129.06H219.83V127.78ZM219.99 135H218.51V121H228.11V122.28H219.99V135ZM237.111 135.12C236.058 135.12 235.078 134.947 234.171 134.6C233.278 134.24 232.498 133.74 231.831 133.1C231.178 132.447 230.664 131.693 230.291 130.84C229.931 129.973 229.751 129.027 229.751 128C229.751 126.973 229.931 126.033 230.291 125.18C230.664 124.313 231.178 123.56 231.831 122.92C232.498 122.267 233.278 121.767 234.171 121.42C235.064 121.06 236.044 120.88 237.111 120.88C238.164 120.88 239.138 121.06 240.031 121.42C240.924 121.767 241.698 122.26 242.351 122.9C243.018 123.54 243.531 124.293 243.891 125.16C244.264 126.027 244.451 126.973 244.451 128C244.451 129.027 244.264 129.973 243.891 130.84C243.531 131.707 243.018 132.46 242.351 133.1C241.698 133.74 240.924 134.24 240.031 134.6C239.138 134.947 238.164 135.12 237.111 135.12ZM237.111 133.8C237.951 133.8 238.724 133.66 239.431 133.38C240.151 133.087 240.771 132.68 241.291 132.16C241.824 131.627 242.238 131.013 242.531 130.32C242.824 129.613 242.971 128.84 242.971 128C242.971 127.16 242.824 126.393 242.531 125.7C242.238 124.993 241.824 124.38 241.291 123.86C240.771 123.327 240.151 122.92 239.431 122.64C238.724 122.347 237.951 122.2 237.111 122.2C236.271 122.2 235.491 122.347 234.771 122.64C234.051 122.92 233.424 123.327 232.891 123.86C232.371 124.38 231.958 124.993 231.651 125.7C231.358 126.393 231.211 127.16 231.211 128C231.211 128.827 231.358 129.593 231.651 130.3C231.958 131.007 232.371 131.627 232.891 132.16C233.424 132.68 234.051 133.087 234.771 133.38C235.491 133.66 236.271 133.8 237.111 133.8ZM247.768 135V121H253.008C254.195 121 255.215 121.193 256.068 121.58C256.922 121.953 257.575 122.5 258.028 123.22C258.495 123.927 258.728 124.787 258.728 125.8C258.728 126.787 258.495 127.64 258.028 128.36C257.575 129.067 256.922 129.613 256.068 130C255.215 130.373 254.195 130.56 253.008 130.56H248.588L249.248 129.88V135H247.768ZM257.328 135L253.728 129.92H255.328L258.948 135H257.328ZM249.248 130L248.588 129.3H252.968C254.368 129.3 255.428 128.993 256.148 128.38C256.882 127.767 257.248 126.907 257.248 125.8C257.248 124.68 256.882 123.813 256.148 123.2C255.428 122.587 254.368 122.28 252.968 122.28H248.588L249.248 121.58V130ZM266.576 135V121H269.836L275.636 130.52H273.916L279.556 121H282.816L282.856 135H279.216L279.176 126.54H279.796L275.576 133.62H273.816L269.476 126.54H270.236V135H266.576ZM292.718 135.28C291.598 135.28 290.564 135.1 289.618 134.74C288.671 134.38 287.844 133.873 287.138 133.22C286.444 132.553 285.904 131.78 285.518 130.9C285.131 130.02 284.938 129.053 284.938 128C284.938 126.947 285.131 125.98 285.518 125.1C285.904 124.22 286.444 123.453 287.138 122.8C287.844 122.133 288.671 121.62 289.618 121.26C290.564 120.9 291.598 120.72 292.718 120.72C293.851 120.72 294.884 120.9 295.818 121.26C296.764 121.62 297.584 122.133 298.278 122.8C298.971 123.453 299.511 124.22 299.898 125.1C300.298 125.98 300.498 126.947 300.498 128C300.498 129.053 300.298 130.027 299.898 130.92C299.511 131.8 298.971 132.567 298.278 133.22C297.584 133.873 296.764 134.38 295.818 134.74C294.884 135.1 293.851 135.28 292.718 135.28ZM292.718 132C293.251 132 293.744 131.907 294.198 131.72C294.664 131.533 295.064 131.267 295.398 130.92C295.744 130.56 296.011 130.133 296.198 129.64C296.398 129.147 296.498 128.6 296.498 128C296.498 127.387 296.398 126.84 296.198 126.36C296.011 125.867 295.744 125.447 295.398 125.1C295.064 124.74 294.664 124.467 294.198 124.28C293.744 124.093 293.251 124 292.718 124C292.184 124 291.684 124.093 291.218 124.28C290.764 124.467 290.364 124.74 290.018 125.1C289.684 125.447 289.418 125.867 289.218 126.36C289.031 126.84 288.938 127.387 288.938 128C288.938 128.6 289.031 129.147 289.218 129.64C289.418 130.133 289.684 130.56 290.018 130.92C290.364 131.267 290.764 131.533 291.218 131.72C291.684 131.907 292.184 132 292.718 132ZM306.403 135L300.423 121H304.703L309.743 133.12H307.223L312.383 121H316.303L310.303 135H306.403ZM317.123 135V121H321.083V135H317.123ZM323.9 135V121H327.16L334.88 130.32H333.34V121H337.22V135H333.96L326.24 125.68H327.78V135H323.9ZM347.013 135.28C345.907 135.28 344.88 135.107 343.933 134.76C342.987 134.4 342.167 133.893 341.473 133.24C340.793 132.587 340.26 131.82 339.873 130.94C339.487 130.047 339.293 129.067 339.293 128C339.293 126.933 339.487 125.96 339.873 125.08C340.26 124.187 340.8 123.413 341.493 122.76C342.187 122.107 343.007 121.607 343.953 121.26C344.913 120.9 345.96 120.72 347.093 120.72C348.413 120.72 349.593 120.94 350.633 121.38C351.673 121.82 352.533 122.453 353.213 123.28L350.693 125.56C350.213 125.04 349.693 124.653 349.133 124.4C348.587 124.133 347.973 124 347.293 124C346.693 124 346.147 124.093 345.653 124.28C345.16 124.467 344.74 124.74 344.393 125.1C344.047 125.447 343.773 125.867 343.573 126.36C343.387 126.84 343.293 127.387 343.293 128C343.293 128.587 343.387 129.127 343.573 129.62C343.773 130.113 344.047 130.54 344.393 130.9C344.74 131.247 345.153 131.52 345.633 131.72C346.127 131.907 346.667 132 347.253 132C347.84 132 348.413 131.907 348.973 131.72C349.533 131.52 350.1 131.187 350.673 130.72L352.893 133.5C352.093 134.073 351.167 134.513 350.113 134.82C349.06 135.127 348.027 135.28 347.013 135.28ZM349.393 132.98V127.7H352.893V133.5L349.393 132.98ZM354.964 130.76V127.84H360.804V130.76H354.964ZM372.518 121H376.478V135H372.518V121ZM367.118 135H363.158V121H367.118V135ZM372.798 129.54H366.838V126.26H372.798V129.54ZM386.331 135.28C385.211 135.28 384.178 135.1 383.231 134.74C382.284 134.38 381.458 133.873 380.751 133.22C380.058 132.553 379.518 131.78 379.131 130.9C378.744 130.02 378.551 129.053 378.551 128C378.551 126.947 378.744 125.98 379.131 125.1C379.518 124.22 380.058 123.453 380.751 122.8C381.458 122.133 382.284 121.62 383.231 121.26C384.178 120.9 385.211 120.72 386.331 120.72C387.464 120.72 388.498 120.9 389.431 121.26C390.378 121.62 391.198 122.133 391.891 122.8C392.584 123.453 393.124 124.22 393.511 125.1C393.911 125.98 394.111 126.947 394.111 128C394.111 129.053 393.911 130.027 393.511 130.92C393.124 131.8 392.584 132.567 391.891 133.22C391.198 133.873 390.378 134.38 389.431 134.74C388.498 135.1 387.464 135.28 386.331 135.28ZM386.331 132C386.864 132 387.358 131.907 387.811 131.72C388.278 131.533 388.678 131.267 389.011 130.92C389.358 130.56 389.624 130.133 389.811 129.64C390.011 129.147 390.111 128.6 390.111 128C390.111 127.387 390.011 126.84 389.811 126.36C389.624 125.867 389.358 125.447 389.011 125.1C388.678 124.74 388.278 124.467 387.811 124.28C387.358 124.093 386.864 124 386.331 124C385.798 124 385.298 124.093 384.831 124.28C384.378 124.467 383.978 124.74 383.631 125.1C383.298 125.447 383.031 125.867 382.831 126.36C382.644 126.84 382.551 127.387 382.551 128C382.551 128.6 382.644 129.147 382.831 129.64C383.031 130.133 383.298 130.56 383.631 130.92C383.978 131.267 384.378 131.533 384.831 131.72C385.298 131.907 385.798 132 386.331 132ZM396.185 135V121H402.585C403.865 121 404.965 121.207 405.885 121.62C406.818 122.033 407.538 122.633 408.045 123.42C408.552 124.193 408.805 125.113 408.805 126.18C408.805 127.233 408.552 128.147 408.045 128.92C407.538 129.68 406.818 130.267 405.885 130.68C404.965 131.08 403.865 131.28 402.585 131.28H398.385L400.145 129.62V135H396.185ZM404.845 135L401.365 129.9H405.585L409.085 135H404.845ZM400.145 130.04L398.385 128.22H402.345C403.172 128.22 403.785 128.04 404.185 127.68C404.598 127.32 404.805 126.82 404.805 126.18C404.805 125.527 404.598 125.02 404.185 124.66C403.785 124.3 403.172 124.12 402.345 124.12H398.385L400.145 122.3V130.04ZM410.99 135V121H414.95V135H410.99ZM417.067 135V132.52L425.307 122.74L425.787 124.14H417.247V121H429.307V123.48L421.067 133.26L420.587 131.86H429.607V135H417.067ZM438.284 135.28C437.164 135.28 436.131 135.1 435.184 134.74C434.238 134.38 433.411 133.873 432.704 133.22C432.011 132.553 431.471 131.78 431.084 130.9C430.698 130.02 430.504 129.053 430.504 128C430.504 126.947 430.698 125.98 431.084 125.1C431.471 124.22 432.011 123.453 432.704 122.8C433.411 122.133 434.238 121.62 435.184 121.26C436.131 120.9 437.164 120.72 438.284 120.72C439.418 120.72 440.451 120.9 441.384 121.26C442.331 121.62 443.151 122.133 443.844 122.8C444.538 123.453 445.078 124.22 445.464 125.1C445.864 125.98 446.064 126.947 446.064 128C446.064 129.053 445.864 130.027 445.464 130.92C445.078 131.8 444.538 132.567 443.844 133.22C443.151 133.873 442.331 134.38 441.384 134.74C440.451 135.1 439.418 135.28 438.284 135.28ZM438.284 132C438.818 132 439.311 131.907 439.764 131.72C440.231 131.533 440.631 131.267 440.964 130.92C441.311 130.56 441.578 130.133 441.764 129.64C441.964 129.147 442.064 128.6 442.064 128C442.064 127.387 441.964 126.84 441.764 126.36C441.578 125.867 441.311 125.447 440.964 125.1C440.631 124.74 440.231 124.467 439.764 124.28C439.311 124.093 438.818 124 438.284 124C437.751 124 437.251 124.093 436.784 124.28C436.331 124.467 435.931 124.74 435.584 125.1C435.251 125.447 434.984 125.867 434.784 126.36C434.598 126.84 434.504 127.387 434.504 128C434.504 128.6 434.598 129.147 434.784 129.64C434.984 130.133 435.251 130.56 435.584 130.92C435.931 131.267 436.331 131.533 436.784 131.72C437.251 131.907 437.751 132 438.284 132ZM448.138 135V121H451.398L459.118 130.32H457.578V121H461.458V135H458.198L450.478 125.68H452.018V135H448.138ZM6.32 159.28C5.17333 159.28 4.06667 159.14 3 158.86C1.94667 158.567 1.08667 158.193 0.42 157.74L1.72 154.82C2.34667 155.22 3.06667 155.553 3.88 155.82C4.70667 156.073 5.52667 156.2 6.34 156.2C6.88667 156.2 7.32667 156.153 7.66 156.06C7.99333 155.953 8.23333 155.82 8.38 155.66C8.54 155.487 8.62 155.287 8.62 155.06C8.62 154.74 8.47333 154.487 8.18 154.3C7.88667 154.113 7.50667 153.96 7.04 153.84C6.57333 153.72 6.05333 153.6 5.48 153.48C4.92 153.36 4.35333 153.207 3.78 153.02C3.22 152.833 2.70667 152.593 2.24 152.3C1.77333 151.993 1.39333 151.6 1.1 151.12C0.806667 150.627 0.66 150.007 0.66 149.26C0.66 148.42 0.886667 147.66 1.34 146.98C1.80667 146.3 2.5 145.753 3.42 145.34C4.34 144.927 5.48667 144.72 6.86 144.72C7.78 144.72 8.68 144.827 9.56 145.04C10.4533 145.24 11.2467 145.54 11.94 145.94L10.72 148.88C10.0533 148.52 9.39333 148.253 8.74 148.08C8.08667 147.893 7.45333 147.8 6.84 147.8C6.29333 147.8 5.85333 147.86 5.52 147.98C5.18667 148.087 4.94667 148.233 4.8 148.42C4.65333 148.607 4.58 148.82 4.58 149.06C4.58 149.367 4.72 149.613 5 149.8C5.29333 149.973 5.67333 150.12 6.14 150.24C6.62 150.347 7.14 150.46 7.7 150.58C8.27333 150.7 8.84 150.853 9.4 151.04C9.97333 151.213 10.4933 151.453 10.96 151.76C11.4267 152.053 11.8 152.447 12.08 152.94C12.3733 153.42 12.52 154.027 12.52 154.76C12.52 155.573 12.2867 156.327 11.82 157.02C11.3667 157.7 10.68 158.247 9.76 158.66C8.85333 159.073 7.70667 159.28 6.32 159.28ZM14.3492 159V145H18.3092V159H14.3492ZM21.1266 159V145H24.3866L30.1866 154.52H28.4666L34.1066 145H37.3666L37.4066 159H33.7666L33.7266 150.54H34.3466L30.1266 157.62H28.3666L24.0266 150.54H24.7866V159H21.1266ZM46.6686 159.28C44.6019 159.28 42.9886 158.713 41.8286 157.58C40.6686 156.447 40.0886 154.84 40.0886 152.76V145H44.0486V152.64C44.0486 153.84 44.2819 154.7 44.7486 155.22C45.2286 155.74 45.8819 156 46.7086 156C47.5353 156 48.1819 155.74 48.6486 155.22C49.1153 154.7 49.3486 153.84 49.3486 152.64V145H53.2486V152.76C53.2486 154.84 52.6686 156.447 51.5086 157.58C50.3486 158.713 48.7353 159.28 46.6686 159.28ZM55.9313 159V145H59.8913V155.86H66.5713V159H55.9313ZM69.8097 159V148.14H65.5097V145H78.0497V148.14H73.7697V159H69.8097ZM77.1419 159L83.3219 145H87.2219L93.4219 159H89.3019L84.4619 146.94H86.0219L81.1819 159H77.1419ZM80.5219 156.28L81.5419 153.36H88.3819L89.4019 156.28H80.5219ZM94.5445 159V145H97.8045L105.525 154.32H103.985V145H107.865V159H104.605L96.8845 149.68H98.4245V159H94.5445ZM114.298 150.42H120.798V153.38H114.298V150.42ZM114.578 155.94H121.898V159H110.658V145H121.638V148.06H114.578V155.94ZM131.155 159.28C130.035 159.28 129.002 159.1 128.055 158.74C127.109 158.38 126.282 157.873 125.575 157.22C124.882 156.553 124.342 155.78 123.955 154.9C123.569 154.02 123.375 153.053 123.375 152C123.375 150.947 123.569 149.98 123.955 149.1C124.342 148.22 124.882 147.453 125.575 146.8C126.282 146.133 127.109 145.62 128.055 145.26C129.002 144.9 130.035 144.72 131.155 144.72C132.289 144.72 133.322 144.9 134.255 145.26C135.202 145.62 136.022 146.133 136.715 146.8C137.409 147.453 137.949 148.22 138.335 149.1C138.735 149.98 138.935 150.947 138.935 152C138.935 153.053 138.735 154.027 138.335 154.92C137.949 155.8 137.409 156.567 136.715 157.22C136.022 157.873 135.202 158.38 134.255 158.74C133.322 159.1 132.289 159.28 131.155 159.28ZM131.155 156C131.689 156 132.182 155.907 132.635 155.72C133.102 155.533 133.502 155.267 133.835 154.92C134.182 154.56 134.449 154.133 134.635 153.64C134.835 153.147 134.935 152.6 134.935 152C134.935 151.387 134.835 150.84 134.635 150.36C134.449 149.867 134.182 149.447 133.835 149.1C133.502 148.74 133.102 148.467 132.635 148.28C132.182 148.093 131.689 148 131.155 148C130.622 148 130.122 148.093 129.655 148.28C129.202 148.467 128.802 148.74 128.455 149.1C128.122 149.447 127.855 149.867 127.655 150.36C127.469 150.84 127.375 151.387 127.375 152C127.375 152.6 127.469 153.147 127.655 153.64C127.855 154.133 128.122 154.56 128.455 154.92C128.802 155.267 129.202 155.533 129.655 155.72C130.122 155.907 130.622 156 131.155 156ZM147.469 159.28C145.403 159.28 143.789 158.713 142.629 157.58C141.469 156.447 140.889 154.84 140.889 152.76V145H144.849V152.64C144.849 153.84 145.083 154.7 145.549 155.22C146.029 155.74 146.683 156 147.509 156C148.336 156 148.983 155.74 149.449 155.22C149.916 154.7 150.149 153.84 150.149 152.64V145H154.049V152.76C154.049 154.84 153.469 156.447 152.309 157.58C151.149 158.713 149.536 159.28 147.469 159.28ZM161.652 159.28C160.505 159.28 159.399 159.14 158.332 158.86C157.279 158.567 156.419 158.193 155.752 157.74L157.052 154.82C157.679 155.22 158.399 155.553 159.212 155.82C160.039 156.073 160.859 156.2 161.672 156.2C162.219 156.2 162.659 156.153 162.992 156.06C163.325 155.953 163.565 155.82 163.712 155.66C163.872 155.487 163.952 155.287 163.952 155.06C163.952 154.74 163.805 154.487 163.512 154.3C163.219 154.113 162.839 153.96 162.372 153.84C161.905 153.72 161.385 153.6 160.812 153.48C160.252 153.36 159.685 153.207 159.112 153.02C158.552 152.833 158.039 152.593 157.572 152.3C157.105 151.993 156.725 151.6 156.432 151.12C156.139 150.627 155.992 150.007 155.992 149.26C155.992 148.42 156.219 147.66 156.672 146.98C157.139 146.3 157.832 145.753 158.752 145.34C159.672 144.927 160.819 144.72 162.192 144.72C163.112 144.72 164.012 144.827 164.892 145.04C165.785 145.24 166.579 145.54 167.272 145.94L166.052 148.88C165.385 148.52 164.725 148.253 164.072 148.08C163.419 147.893 162.785 147.8 162.172 147.8C161.625 147.8 161.185 147.86 160.852 147.98C160.519 148.087 160.279 148.233 160.132 148.42C159.985 148.607 159.912 148.82 159.912 149.06C159.912 149.367 160.052 149.613 160.332 149.8C160.625 149.973 161.005 150.12 161.472 150.24C161.952 150.347 162.472 150.46 163.032 150.58C163.605 150.7 164.172 150.853 164.732 151.04C165.305 151.213 165.825 151.453 166.292 151.76C166.759 152.053 167.132 152.447 167.412 152.94C167.705 153.42 167.852 154.027 167.852 154.76C167.852 155.573 167.619 156.327 167.152 157.02C166.699 157.7 166.012 158.247 165.092 158.66C164.185 159.073 163.039 159.28 161.652 159.28ZM175.502 159V145H179.462V159H175.502ZM182.279 159V145H185.539L193.259 154.32H191.719V145H195.599V159H192.339L184.619 149.68H186.159V159H182.279ZM198.392 159V145H204.792C206.072 145 207.172 145.207 208.092 145.62C209.026 146.033 209.746 146.633 210.252 147.42C210.759 148.193 211.012 149.113 211.012 150.18C211.012 151.233 210.759 152.147 210.252 152.92C209.746 153.693 209.026 154.293 208.092 154.72C207.172 155.133 206.072 155.34 204.792 155.34H200.592L202.352 153.62V159H198.392ZM202.352 154.04L200.592 152.22H204.552C205.379 152.22 205.992 152.04 206.392 151.68C206.806 151.32 207.012 150.82 207.012 150.18C207.012 149.527 206.806 149.02 206.392 148.66C205.992 148.3 205.379 148.12 204.552 148.12H200.592L202.352 146.3V154.04ZM219.266 159.28C217.2 159.28 215.586 158.713 214.426 157.58C213.266 156.447 212.686 154.84 212.686 152.76V145H216.646V152.64C216.646 153.84 216.88 154.7 217.346 155.22C217.826 155.74 218.48 156 219.306 156C220.133 156 220.78 155.74 221.246 155.22C221.713 154.7 221.946 153.84 221.946 152.64V145H225.846V152.76C225.846 154.84 225.266 156.447 224.106 157.58C222.946 158.713 221.333 159.28 219.266 159.28ZM231.294 159V148.14H226.994V145H239.534V148.14H235.254V159H231.294ZM239.808 154.76V151.84H245.648V154.76H239.808ZM245.794 159L251.974 145H255.874L262.074 159H257.954L253.114 146.94H254.674L249.834 159H245.794ZM249.174 156.28L250.194 153.36H257.034L258.054 156.28H249.174ZM263.197 159V145H266.457L274.177 154.32H272.637V145H276.517V159H273.257L265.537 149.68H267.077V159H263.197ZM279.31 159V145H285.93C287.477 145 288.837 145.287 290.01 145.86C291.183 146.433 292.097 147.24 292.75 148.28C293.417 149.32 293.75 150.56 293.75 152C293.75 153.427 293.417 154.667 292.75 155.72C292.097 156.76 291.183 157.567 290.01 158.14C288.837 158.713 287.477 159 285.93 159H279.31ZM283.27 155.84H285.77C286.57 155.84 287.263 155.693 287.85 155.4C288.45 155.093 288.917 154.653 289.25 154.08C289.583 153.493 289.75 152.8 289.75 152C289.75 151.187 289.583 150.493 289.25 149.92C288.917 149.347 288.45 148.913 287.85 148.62C287.263 148.313 286.57 148.16 285.77 148.16H283.27V155.84ZM295.433 154.76V151.84H301.273V154.76H295.433ZM308.312 159.28C307.166 159.28 306.059 159.14 304.992 158.86C303.939 158.567 303.079 158.193 302.412 157.74L303.712 154.82C304.339 155.22 305.059 155.553 305.872 155.82C306.699 156.073 307.519 156.2 308.332 156.2C308.879 156.2 309.319 156.153 309.652 156.06C309.986 155.953 310.226 155.82 310.372 155.66C310.532 155.487 310.612 155.287 310.612 155.06C310.612 154.74 310.466 154.487 310.172 154.3C309.879 154.113 309.499 153.96 309.032 153.84C308.566 153.72 308.046 153.6 307.472 153.48C306.912 153.36 306.346 153.207 305.772 153.02C305.212 152.833 304.699 152.593 304.232 152.3C303.766 151.993 303.386 151.6 303.092 151.12C302.799 150.627 302.652 150.007 302.652 149.26C302.652 148.42 302.879 147.66 303.332 146.98C303.799 146.3 304.492 145.753 305.412 145.34C306.332 144.927 307.479 144.72 308.852 144.72C309.772 144.72 310.672 144.827 311.552 145.04C312.446 145.24 313.239 145.54 313.932 145.94L312.712 148.88C312.046 148.52 311.386 148.253 310.732 148.08C310.079 147.893 309.446 147.8 308.832 147.8C308.286 147.8 307.846 147.86 307.512 147.98C307.179 148.087 306.939 148.233 306.792 148.42C306.646 148.607 306.572 148.82 306.572 149.06C306.572 149.367 306.712 149.613 306.992 149.8C307.286 149.973 307.666 150.12 308.132 150.24C308.612 150.347 309.132 150.46 309.692 150.58C310.266 150.7 310.832 150.853 311.392 151.04C311.966 151.213 312.486 151.453 312.952 151.76C313.419 152.053 313.792 152.447 314.072 152.94C314.366 153.42 314.512 154.027 314.512 154.76C314.512 155.573 314.279 156.327 313.812 157.02C313.359 157.7 312.672 158.247 311.752 158.66C310.846 159.073 309.699 159.28 308.312 159.28ZM319.126 159V148.14H314.826V145H327.366V148.14H323.086V159H319.126ZM326.458 159L332.638 145H336.538L342.738 159H338.618L333.778 146.94H335.338L330.498 159H326.458ZM329.838 156.28L330.858 153.36H337.698L338.718 156.28H329.838ZM346.138 159V148.14H341.838V145H354.378V148.14H350.098V159H346.138ZM359.493 150.42H365.993V153.38H359.493V150.42ZM359.773 155.94H367.093V159H355.853V145H366.833V148.06H359.773V155.94ZM378.751 150.42H385.251V153.38H378.751V150.42ZM379.031 155.94H386.351V159H375.111V145H386.091V148.06H379.031V155.94ZM393.468 159.28C392.322 159.28 391.215 159.14 390.148 158.86C389.095 158.567 388.235 158.193 387.568 157.74L388.868 154.82C389.495 155.22 390.215 155.553 391.028 155.82C391.855 156.073 392.675 156.2 393.488 156.2C394.035 156.2 394.475 156.153 394.808 156.06C395.142 155.953 395.382 155.82 395.528 155.66C395.688 155.487 395.768 155.287 395.768 155.06C395.768 154.74 395.622 154.487 395.328 154.3C395.035 154.113 394.655 153.96 394.188 153.84C393.722 153.72 393.202 153.6 392.628 153.48C392.068 153.36 391.502 153.207 390.928 153.02C390.368 152.833 389.855 152.593 389.388 152.3C388.922 151.993 388.542 151.6 388.248 151.12C387.955 150.627 387.808 150.007 387.808 149.26C387.808 148.42 388.035 147.66 388.488 146.98C388.955 146.3 389.648 145.753 390.568 145.34C391.488 144.927 392.635 144.72 394.008 144.72C394.928 144.72 395.828 144.827 396.708 145.04C397.602 145.24 398.395 145.54 399.088 145.94L397.868 148.88C397.202 148.52 396.542 148.253 395.888 148.08C395.235 147.893 394.602 147.8 393.988 147.8C393.442 147.8 393.002 147.86 392.668 147.98C392.335 148.087 392.095 148.233 391.948 148.42C391.802 148.607 391.728 148.82 391.728 149.06C391.728 149.367 391.868 149.613 392.148 149.8C392.442 149.973 392.822 150.12 393.288 150.24C393.768 150.347 394.288 150.46 394.848 150.58C395.422 150.7 395.988 150.853 396.548 151.04C397.122 151.213 397.642 151.453 398.108 151.76C398.575 152.053 398.948 152.447 399.228 152.94C399.522 153.42 399.668 154.027 399.668 154.76C399.668 155.573 399.435 156.327 398.968 157.02C398.515 157.7 397.828 158.247 396.908 158.66C396.002 159.073 394.855 159.28 393.468 159.28ZM404.282 159V148.14H399.982V145H412.522V148.14H408.242V159H404.282ZM413.998 159V145H417.958V159H413.998ZM420.775 159V145H424.035L429.835 154.52H428.115L433.755 145H437.015L437.055 159H433.415L433.375 150.54H433.995L429.775 157.62H428.015L423.675 150.54H424.435V159H420.775ZM438.177 159L444.357 145H448.257L454.457 159H450.337L445.497 146.94H447.057L442.217 159H438.177ZM441.557 156.28L442.577 153.36H449.417L450.437 156.28H441.557ZM457.857 159V148.14H453.557V145H466.097V148.14H461.817V159H457.857ZM467.572 159V145H471.532V159H467.572ZM481.409 159.28C480.289 159.28 479.256 159.1 478.309 158.74C477.363 158.38 476.536 157.873 475.829 157.22C475.136 156.553 474.596 155.78 474.209 154.9C473.823 154.02 473.629 153.053 473.629 152C473.629 150.947 473.823 149.98 474.209 149.1C474.596 148.22 475.136 147.453 475.829 146.8C476.536 146.133 477.363 145.62 478.309 145.26C479.256 144.9 480.289 144.72 481.409 144.72C482.543 144.72 483.576 144.9 484.509 145.26C485.456 145.62 486.276 146.133 486.969 146.8C487.663 147.453 488.203 148.22 488.589 149.1C488.989 149.98 489.189 150.947 489.189 152C489.189 153.053 488.989 154.027 488.589 154.92C488.203 155.8 487.663 156.567 486.969 157.22C486.276 157.873 485.456 158.38 484.509 158.74C483.576 159.1 482.543 159.28 481.409 159.28ZM481.409 156C481.943 156 482.436 155.907 482.889 155.72C483.356 155.533 483.756 155.267 484.089 154.92C484.436 154.56 484.703 154.133 484.889 153.64C485.089 153.147 485.189 152.6 485.189 152C485.189 151.387 485.089 150.84 484.889 150.36C484.703 149.867 484.436 149.447 484.089 149.1C483.756 148.74 483.356 148.467 482.889 148.28C482.436 148.093 481.943 148 481.409 148C480.876 148 480.376 148.093 479.909 148.28C479.456 148.467 479.056 148.74 478.709 149.1C478.376 149.447 478.109 149.867 477.909 150.36C477.723 150.84 477.629 151.387 477.629 152C477.629 152.6 477.723 153.147 477.909 153.64C478.109 154.133 478.376 154.56 478.709 154.92C479.056 155.267 479.456 155.533 479.909 155.72C480.376 155.907 480.876 156 481.409 156ZM491.263 159V145H494.523L502.243 154.32H500.703V145H504.583V159H501.323L493.603 149.68H495.143V159H491.263Z" fill="black"/>
<rect x="568" y="8" width="16" height="16" fill="black"/>
<rect x="584" y="56" width="16" height="16" fill="black"/>
<rect x="584" y="72" width="16" height="16" fill="black"/>
<rect x="600" y="24" width="16" height="16" fill="black"/>
<rect x="600" y="40" width="16" height="16" fill="black"/>
<rect x="568" y="24" width="16" height="16" fill="black"/>
<rect x="568" y="40" width="16" height="16" fill="black"/>
<rect x="600" y="8" width="16" height="16" fill="black"/>
<rect x="504" y="8" width="16" height="16" fill="black"/>
<rect x="520" y="8" width="16" height="16" fill="black"/>
<rect x="504" y="24" width="16" height="16" fill="black"/>
<rect x="504" y="40" width="16" height="16" fill="black"/>
<rect x="520" y="40" width="16" height="16" fill="black"/>
<rect x="536" y="40" width="16" height="16" fill="black"/>
<rect x="536" y="24" width="16" height="16" fill="black"/>
<rect x="504" y="56" width="16" height="16" fill="black"/>
<rect x="504" y="72" width="16" height="16" fill="black"/>
<rect x="472" y="40" width="16" height="16" fill="black"/>
<rect x="408" y="8" width="16" height="16" fill="black"/>
<rect x="424" y="8" width="16" height="16" fill="black"/>
<rect x="424" y="40" width="16" height="16" fill="black"/>
<rect x="424" y="72" width="16" height="16" fill="black"/>
<rect x="440" y="8" width="16" height="16" fill="black"/>
<rect x="440" y="40" width="16" height="16" fill="black"/>
<rect x="440" y="72" width="16" height="16" fill="black"/>
<rect x="408" y="24" width="16" height="16" fill="black"/>
<rect x="408" y="40" width="16" height="16" fill="black"/>
<rect x="408" y="56" width="16" height="16" fill="black"/>
<rect x="408" y="72" width="16" height="16" fill="black"/>
<rect x="328" y="24" width="16" height="16" fill="black"/>
<rect x="328" y="40" width="16" height="16" fill="black"/>
<rect x="344" y="40" width="16" height="16" fill="black"/>
<rect x="360" y="40" width="16" height="16" fill="black"/>
<rect x="376" y="40" width="16" height="16" fill="black"/>
<rect x="376" y="56" width="16" height="16" fill="black"/>
<rect x="360" y="72" width="16" height="16" fill="black"/>
<rect x="344" y="72" width="16" height="16" fill="black"/>
<rect x="328" y="72" width="16" height="16" fill="black"/>
<rect x="328" y="64" width="16" height="8" fill="black"/>
<rect x="376" y="24" width="16" height="8" fill="black"/>
<rect x="344" y="8" width="16" height="16" fill="black"/>
<rect x="376" y="8" width="16" height="16" fill="black"/>
<rect x="360" y="8" width="16" height="16" fill="black"/>
<rect x="296" y="24" width="16" height="16" fill="black"/>
<rect x="296" y="8" width="16" height="8" fill="black"/>
<rect x="296" y="40" width="16" height="16" fill="black"/>
<rect x="296" y="56" width="16" height="16" fill="black"/>
<rect x="296" y="72" width="16" height="16" fill="black"/>
<rect x="216" y="24" width="16" height="16" fill="black"/>
<rect x="216" y="40" width="16" height="16" fill="black"/>
<rect x="232" y="40" width="16" height="16" fill="black"/>
<rect x="248" y="40" width="16" height="16" fill="black"/>
<rect x="264" y="40" width="16" height="16" fill="black"/>
<rect x="264" y="56" width="16" height="16" fill="black"/>
<rect x="248" y="72" width="16" height="16" fill="black"/>
<rect x="232" y="72" width="16" height="16" fill="black"/>
<rect x="216" y="72" width="16" height="16" fill="black"/>
<rect x="216" y="64" width="16" height="8" fill="black"/>
<rect x="264" y="24" width="16" height="8" fill="black"/>
<rect x="232" y="8" width="16" height="16" fill="black"/>
<rect x="248" y="8" width="16" height="16" fill="black"/>
<rect x="264" y="8" width="16" height="16" fill="black"/>
<rect x="184" y="40" width="16" height="16" fill="black"/>
<rect x="104" y="8" width="16" height="16" fill="black"/>
<rect x="152" y="8" width="16" height="16" fill="black"/>
<rect x="104" y="24" width="16" height="16" fill="black"/>
<rect x="152" y="24" width="16" height="16" fill="black"/>
<rect x="104" y="40" width="16" height="16" fill="black"/>
<rect x="152" y="40" width="16" height="16" fill="black"/>
<rect x="120" y="40" width="16" height="16" fill="black"/>
<rect x="136" y="40" width="16" height="16" fill="black"/>
<rect x="104" y="56" width="16" height="16" fill="black"/>
<rect x="152" y="56" width="16" height="16" fill="black"/>
<rect x="104" y="72" width="16" height="16" fill="black"/>
<rect x="152" y="72" width="16" height="16" fill="black"/>
<rect x="24" y="8" width="16" height="16" fill="black"/>
<rect width="16" height="16" fill="black"/>
<rect x="40" y="8" width="16" height="16" fill="black"/>
<rect x="56" y="8" width="16" height="16" fill="black"/>
<rect x="72" y="8" width="16" height="16" fill="black"/>
<rect x="72" y="24" width="16" height="16" fill="black"/>
<rect x="72" y="40" width="16" height="16" fill="black"/>
<rect x="72" y="56" width="16" height="16" fill="black"/>
<rect x="72" y="72" width="16" height="16" fill="black"/>
<rect x="40" y="24" width="16" height="16" fill="black"/>
<rect x="40" y="40" width="16" height="16" fill="black"/>
<rect x="40" y="56" width="16" height="16" fill="black"/>
<rect x="8" y="24" width="16" height="16" fill="black"/>
<rect x="8" y="40" width="16" height="16" fill="black"/>
<rect x="8" y="56" width="16" height="16" fill="black"/>
<rect x="8" y="72" width="16" height="16" fill="black"/>
</svg>
