<svg width="615" height="192" viewBox="0 0 615 192" fill="none" xmlns="http://www.w3.org/2000/svg">
<path d="M107.12 112V30.8H126.028L159.668 86.016H149.692L182.404 30.8H201.312L201.544 112H180.432L180.2 62.932H183.796L159.32 103.996H149.112L123.94 62.932H128.348V112H107.12ZM272.084 30.8H295.052V112H272.084V30.8ZM240.764 112H217.796V30.8H240.764V112ZM273.708 80.332H239.14V61.308H273.708V80.332ZM308.701 87.408V70.472H342.573V87.408H308.701ZM383.402 113.624C376.751 113.624 370.333 112.812 364.146 111.188C358.037 109.487 353.049 107.321 349.182 104.692L356.722 87.756C360.357 90.076 364.533 92.0093 369.25 93.556C374.045 95.0253 378.801 95.76 383.518 95.76C386.689 95.76 389.241 95.4893 391.174 94.948C393.107 94.3293 394.499 93.556 395.35 92.628C396.278 91.6227 396.742 90.4627 396.742 89.148C396.742 87.292 395.891 85.8227 394.19 84.74C392.489 83.6573 390.285 82.768 387.578 82.072C384.871 81.376 381.855 80.68 378.53 79.984C375.282 79.288 371.995 78.3987 368.67 77.316C365.422 76.2333 362.445 74.8413 359.738 73.14C357.031 71.3613 354.827 69.08 353.126 66.296C351.425 63.4347 350.574 59.8387 350.574 55.508C350.574 50.636 351.889 46.228 354.518 42.284C357.225 38.34 361.246 35.1693 366.582 32.772C371.918 30.3747 378.569 29.176 386.534 29.176C391.87 29.176 397.09 29.7947 402.194 31.032C407.375 32.192 411.977 33.932 415.998 36.252L408.922 53.304C405.055 51.216 401.227 49.6693 397.438 48.664C393.649 47.5813 389.975 47.04 386.418 47.04C383.247 47.04 380.695 47.388 378.762 48.084C376.829 48.7027 375.437 49.5533 374.586 50.636C373.735 51.7187 373.31 52.956 373.31 54.348C373.31 56.1267 374.122 57.5573 375.746 58.64C377.447 59.6453 379.651 60.496 382.358 61.192C385.142 61.8107 388.158 62.468 391.406 63.164C394.731 63.86 398.018 64.7493 401.266 65.832C404.591 66.8373 407.607 68.2293 410.314 70.008C413.021 71.7093 415.186 73.9907 416.81 76.852C418.511 79.636 419.362 83.1547 419.362 87.408C419.362 92.1253 418.009 96.4947 415.302 100.516C412.673 104.46 408.69 107.631 403.354 110.028C398.095 112.425 391.445 113.624 383.402 113.624ZM429.972 112V30.8H452.94V112H429.972ZM497.816 113.624C491.165 113.624 484.747 112.812 478.56 111.188C472.451 109.487 467.463 107.321 463.596 104.692L471.136 87.756C474.771 90.076 478.947 92.0093 483.664 93.556C488.459 95.0253 493.215 95.76 497.932 95.76C501.103 95.76 503.655 95.4893 505.588 94.948C507.521 94.3293 508.913 93.556 509.764 92.628C510.692 91.6227 511.156 90.4627 511.156 89.148C511.156 87.292 510.305 85.8227 508.604 84.74C506.903 83.6573 504.699 82.768 501.992 82.072C499.285 81.376 496.269 80.68 492.944 79.984C489.696 79.288 486.409 78.3987 483.084 77.316C479.836 76.2333 476.859 74.8413 474.152 73.14C471.445 71.3613 469.241 69.08 467.54 66.296C465.839 63.4347 464.988 59.8387 464.988 55.508C464.988 50.636 466.303 46.228 468.932 42.284C471.639 38.34 475.66 35.1693 480.996 32.772C486.332 30.3747 492.983 29.176 500.948 29.176C506.284 29.176 511.504 29.7947 516.608 31.032C521.789 32.192 526.391 33.932 530.412 36.252L523.336 53.304C519.469 51.216 515.641 49.6693 511.852 48.664C508.063 47.5813 504.389 47.04 500.832 47.04C497.661 47.04 495.109 47.388 493.176 48.084C491.243 48.7027 489.851 49.5533 489 50.636C488.149 51.7187 487.724 52.956 487.724 54.348C487.724 56.1267 488.536 57.5573 490.16 58.64C491.861 59.6453 494.065 60.496 496.772 61.192C499.556 61.8107 502.572 62.468 505.82 63.164C509.145 63.86 512.432 64.7493 515.68 65.832C519.005 66.8373 522.021 68.2293 524.728 70.008C527.435 71.7093 529.6 73.9907 531.224 76.852C532.925 79.636 533.776 83.1547 533.776 87.408C533.776 92.1253 532.423 96.4947 529.716 100.516C527.087 104.46 523.104 107.631 517.768 110.028C512.509 112.425 505.859 113.624 497.816 113.624ZM565.498 62.236H603.198V79.404H565.498V62.236ZM567.122 94.252H609.578V112H544.386V30.8H608.07V48.548H567.122V94.252Z" fill="black"/>
<rect x="19" y="53" width="16" height="16" fill="#3F7DAE"/>
<rect y="53" width="16" height="16" fill="#3F7DAE"/>
<rect y="72" width="16" height="16" fill="#3F7DAE"/>
<rect x="38" y="34" width="16" height="16" fill="#3F7DAE"/>
<rect x="38" y="53" width="16" height="16" fill="#3F7DAE"/>
<rect x="57" y="53" width="16" height="16" fill="#FFDC52"/>
<rect x="57" y="72" width="16" height="16" fill="#FFDC52"/>
<rect x="38" y="72" width="16" height="16" fill="#FFDC52"/>
<rect x="19" y="72" width="16" height="16" fill="#FFDC52"/>
<rect x="19" y="91" width="16" height="16" fill="#FFDC52"/>
<path fill-rule="evenodd" clip-rule="evenodd" d="M35 34H19V50H35V34ZM27 46C29.209 46 31 44.2092 31 42C31 39.7908 29.209 38 27 38C24.791 38 23 39.7908 23 42C23 44.2092 24.791 46 27 46Z" fill="#3F7DAE"/>
<path fill-rule="evenodd" clip-rule="evenodd" d="M54 91H38V107H54V91ZM46 103C48.209 103 50 101.209 50 99C50 96.7908 48.209 95 46 95C43.791 95 42 96.7908 42 99C42 101.209 43.791 103 46 103Z" fill="#FFDC52"/>
<path d="M1.04 163L7.44 149H8.9L15.3 163H13.74L7.86 149.86H8.46L2.58 163H1.04ZM3.56 159.26L4 158.06H12.14L12.58 159.26H3.56ZM22.8503 163V149H28.0903C29.277 149 30.297 149.193 31.1503 149.58C32.0036 149.953 32.657 150.5 33.1103 151.22C33.577 151.927 33.8103 152.787 33.8103 153.8C33.8103 154.787 33.577 155.64 33.1103 156.36C32.657 157.067 32.0036 157.613 31.1503 158C30.297 158.387 29.277 158.58 28.0903 158.58H23.6703L24.3303 157.88V163H22.8503ZM24.3303 158L23.6703 157.28H28.0503C29.4503 157.28 30.5103 156.98 31.2303 156.38C31.9636 155.767 32.3303 154.907 32.3303 153.8C32.3303 152.68 31.9636 151.813 31.2303 151.2C30.5103 150.587 29.4503 150.28 28.0503 150.28H23.6703L24.3303 149.58V158ZM40.3505 163V157.8L40.6905 158.72L34.7505 149H36.3305L41.5505 157.54H40.7105L45.9305 149H47.4105L41.4705 158.72L41.8105 157.8V163H40.3505ZM52.3281 163V150.28H47.4081V149H58.7281V150.28H53.8081V163H52.3281ZM71.3325 149H72.7925V163H71.3325V149ZM62.5725 163H61.0925V149H62.5725V163ZM71.4725 156.54H62.4125V155.24H71.4725V156.54ZM83.482 163.12C82.4287 163.12 81.4487 162.947 80.542 162.6C79.6487 162.24 78.8687 161.74 78.202 161.1C77.5487 160.447 77.0354 159.693 76.662 158.84C76.302 157.973 76.122 157.027 76.122 156C76.122 154.973 76.302 154.033 76.662 153.18C77.0354 152.313 77.5487 151.56 78.202 150.92C78.8687 150.267 79.6487 149.767 80.542 149.42C81.4354 149.06 82.4154 148.88 83.482 148.88C84.5354 148.88 85.5087 149.06 86.402 149.42C87.2954 149.767 88.0687 150.26 88.722 150.9C89.3887 151.54 89.902 152.293 90.262 153.16C90.6354 154.027 90.822 154.973 90.822 156C90.822 157.027 90.6354 157.973 90.262 158.84C89.902 159.707 89.3887 160.46 88.722 161.1C88.0687 161.74 87.2954 162.24 86.402 162.6C85.5087 162.947 84.5354 163.12 83.482 163.12ZM83.482 161.8C84.322 161.8 85.0954 161.66 85.802 161.38C86.522 161.087 87.142 160.68 87.662 160.16C88.1954 159.627 88.6087 159.013 88.902 158.32C89.1954 157.613 89.342 156.84 89.342 156C89.342 155.16 89.1954 154.393 88.902 153.7C88.6087 152.993 88.1954 152.38 87.662 151.86C87.142 151.327 86.522 150.92 85.802 150.64C85.0954 150.347 84.322 150.2 83.482 150.2C82.642 150.2 81.862 150.347 81.142 150.64C80.422 150.92 79.7954 151.327 79.262 151.86C78.742 152.38 78.3287 152.993 78.022 153.7C77.7287 154.393 77.582 155.16 77.582 156C77.582 156.827 77.7287 157.593 78.022 158.3C78.3287 159.007 78.742 159.627 79.262 160.16C79.7954 160.68 80.422 161.087 81.142 161.38C81.862 161.66 82.642 161.8 83.482 161.8ZM94.1394 163V149H95.3594L105.019 161.16H104.379V149H105.839V163H104.619L94.9794 150.84H95.6194V163H94.1394ZM115.643 163V149H120.883C122.07 149 123.09 149.193 123.943 149.58C124.797 149.953 125.45 150.5 125.903 151.22C126.37 151.927 126.603 152.787 126.603 153.8C126.603 154.787 126.37 155.64 125.903 156.36C125.45 157.067 124.797 157.613 123.943 158C123.09 158.387 122.07 158.58 120.883 158.58H116.463L117.123 157.88V163H115.643ZM117.123 158L116.463 157.28H120.843C122.243 157.28 123.303 156.98 124.023 156.38C124.757 155.767 125.123 154.907 125.123 153.8C125.123 152.68 124.757 151.813 124.023 151.2C123.303 150.587 122.243 150.28 120.843 150.28H116.463L117.123 149.58V158ZM126.86 163L133.26 149H134.72L141.12 163H139.56L133.68 149.86H134.28L128.4 163H126.86ZM129.38 159.26L129.82 158.06H137.96L138.4 159.26H129.38ZM149.321 163.12C148.268 163.12 147.294 162.947 146.401 162.6C145.508 162.24 144.734 161.74 144.081 161.1C143.428 160.46 142.914 159.707 142.541 158.84C142.181 157.973 142.001 157.027 142.001 156C142.001 154.973 142.181 154.027 142.541 153.16C142.914 152.293 143.428 151.54 144.081 150.9C144.748 150.26 145.528 149.767 146.421 149.42C147.314 149.06 148.288 148.88 149.341 148.88C150.354 148.88 151.308 149.053 152.201 149.4C153.094 149.733 153.848 150.24 154.461 150.92L153.521 151.86C152.948 151.273 152.314 150.853 151.621 150.6C150.928 150.333 150.181 150.2 149.381 150.2C148.541 150.2 147.761 150.347 147.041 150.64C146.321 150.92 145.694 151.327 145.161 151.86C144.628 152.38 144.208 152.993 143.901 153.7C143.608 154.393 143.461 155.16 143.461 156C143.461 156.84 143.608 157.613 143.901 158.32C144.208 159.013 144.628 159.627 145.161 160.16C145.694 160.68 146.321 161.087 147.041 161.38C147.761 161.66 148.541 161.8 149.381 161.8C150.181 161.8 150.928 161.667 151.621 161.4C152.314 161.133 152.948 160.707 153.521 160.12L154.461 161.06C153.848 161.74 153.094 162.253 152.201 162.6C151.308 162.947 150.348 163.12 149.321 163.12ZM158.896 159.52L158.836 157.72L167.316 149H169.016L162.836 155.48L161.996 156.38L158.896 159.52ZM157.616 163V149H159.096V163H157.616ZM167.676 163L161.636 156.04L162.636 154.96L169.436 163H167.676ZM169.048 163L175.448 149H176.908L183.308 163H181.748L175.868 149.86H176.468L170.588 163H169.048ZM171.568 159.26L172.008 158.06H180.148L180.588 159.26H171.568ZM191.568 163.12C190.502 163.12 189.515 162.947 188.608 162.6C187.715 162.24 186.935 161.74 186.268 161.1C185.615 160.46 185.102 159.707 184.728 158.84C184.368 157.973 184.188 157.027 184.188 156C184.188 154.973 184.368 154.027 184.728 153.16C185.102 152.293 185.622 151.54 186.288 150.9C186.955 150.26 187.735 149.767 188.628 149.42C189.535 149.06 190.522 148.88 191.588 148.88C192.655 148.88 193.628 149.047 194.508 149.38C195.402 149.713 196.162 150.22 196.788 150.9L195.868 151.84C195.282 151.253 194.635 150.833 193.928 150.58C193.222 150.327 192.462 150.2 191.648 150.2C190.782 150.2 189.982 150.347 189.248 150.64C188.528 150.92 187.895 151.327 187.348 151.86C186.815 152.38 186.395 152.993 186.088 153.7C185.795 154.393 185.648 155.16 185.648 156C185.648 156.827 185.795 157.593 186.088 158.3C186.395 159.007 186.815 159.627 187.348 160.16C187.895 160.68 188.528 161.087 189.248 161.38C189.982 161.66 190.775 161.8 191.628 161.8C192.428 161.8 193.182 161.68 193.888 161.44C194.608 161.2 195.268 160.793 195.868 160.22L196.708 161.34C196.042 161.927 195.262 162.373 194.368 162.68C193.475 162.973 192.542 163.12 191.568 163.12ZM195.288 161.16V156H196.708V161.34L195.288 161.16ZM202.217 155.26H209.617V156.52H202.217V155.26ZM202.377 161.72H210.797V163H200.897V149H210.497V150.28H202.377V161.72ZM220.83 155.78H228.23V157.06H220.83V155.78ZM220.99 163H219.51V149H229.11V150.28H220.99V163ZM238.111 163.12C237.058 163.12 236.078 162.947 235.171 162.6C234.278 162.24 233.498 161.74 232.831 161.1C232.178 160.447 231.664 159.693 231.291 158.84C230.931 157.973 230.751 157.027 230.751 156C230.751 154.973 230.931 154.033 231.291 153.18C231.664 152.313 232.178 151.56 232.831 150.92C233.498 150.267 234.278 149.767 235.171 149.42C236.064 149.06 237.044 148.88 238.111 148.88C239.164 148.88 240.138 149.06 241.031 149.42C241.924 149.767 242.698 150.26 243.351 150.9C244.018 151.54 244.531 152.293 244.891 153.16C245.264 154.027 245.451 154.973 245.451 156C245.451 157.027 245.264 157.973 244.891 158.84C244.531 159.707 244.018 160.46 243.351 161.1C242.698 161.74 241.924 162.24 241.031 162.6C240.138 162.947 239.164 163.12 238.111 163.12ZM238.111 161.8C238.951 161.8 239.724 161.66 240.431 161.38C241.151 161.087 241.771 160.68 242.291 160.16C242.824 159.627 243.238 159.013 243.531 158.32C243.824 157.613 243.971 156.84 243.971 156C243.971 155.16 243.824 154.393 243.531 153.7C243.238 152.993 242.824 152.38 242.291 151.86C241.771 151.327 241.151 150.92 240.431 150.64C239.724 150.347 238.951 150.2 238.111 150.2C237.271 150.2 236.491 150.347 235.771 150.64C235.051 150.92 234.424 151.327 233.891 151.86C233.371 152.38 232.958 152.993 232.651 153.7C232.358 154.393 232.211 155.16 232.211 156C232.211 156.827 232.358 157.593 232.651 158.3C232.958 159.007 233.371 159.627 233.891 160.16C234.424 160.68 235.051 161.087 235.771 161.38C236.491 161.66 237.271 161.8 238.111 161.8ZM248.768 163V149H254.008C255.195 149 256.215 149.193 257.068 149.58C257.922 149.953 258.575 150.5 259.028 151.22C259.495 151.927 259.728 152.787 259.728 153.8C259.728 154.787 259.495 155.64 259.028 156.36C258.575 157.067 257.922 157.613 257.068 158C256.215 158.373 255.195 158.56 254.008 158.56H249.588L250.248 157.88V163H248.768ZM258.328 163L254.728 157.92H256.328L259.948 163H258.328ZM250.248 158L249.588 157.3H253.968C255.368 157.3 256.428 156.993 257.148 156.38C257.882 155.767 258.248 154.907 258.248 153.8C258.248 152.68 257.882 151.813 257.148 151.2C256.428 150.587 255.368 150.28 253.968 150.28H249.588L250.248 149.58V158ZM267.576 163V149H270.836L276.636 158.52H274.916L280.556 149H283.816L283.856 163H280.216L280.176 154.54H280.796L276.576 161.62H274.816L270.476 154.54H271.236V163H267.576ZM293.718 163.28C292.598 163.28 291.564 163.1 290.618 162.74C289.671 162.38 288.844 161.873 288.138 161.22C287.444 160.553 286.904 159.78 286.518 158.9C286.131 158.02 285.938 157.053 285.938 156C285.938 154.947 286.131 153.98 286.518 153.1C286.904 152.22 287.444 151.453 288.138 150.8C288.844 150.133 289.671 149.62 290.618 149.26C291.564 148.9 292.598 148.72 293.718 148.72C294.851 148.72 295.884 148.9 296.818 149.26C297.764 149.62 298.584 150.133 299.278 150.8C299.971 151.453 300.511 152.22 300.898 153.1C301.298 153.98 301.498 154.947 301.498 156C301.498 157.053 301.298 158.027 300.898 158.92C300.511 159.8 299.971 160.567 299.278 161.22C298.584 161.873 297.764 162.38 296.818 162.74C295.884 163.1 294.851 163.28 293.718 163.28ZM293.718 160C294.251 160 294.744 159.907 295.198 159.72C295.664 159.533 296.064 159.267 296.398 158.92C296.744 158.56 297.011 158.133 297.198 157.64C297.398 157.147 297.498 156.6 297.498 156C297.498 155.387 297.398 154.84 297.198 154.36C297.011 153.867 296.744 153.447 296.398 153.1C296.064 152.74 295.664 152.467 295.198 152.28C294.744 152.093 294.251 152 293.718 152C293.184 152 292.684 152.093 292.218 152.28C291.764 152.467 291.364 152.74 291.018 153.1C290.684 153.447 290.418 153.867 290.218 154.36C290.031 154.84 289.938 155.387 289.938 156C289.938 156.6 290.031 157.147 290.218 157.64C290.418 158.133 290.684 158.56 291.018 158.92C291.364 159.267 291.764 159.533 292.218 159.72C292.684 159.907 293.184 160 293.718 160ZM307.403 163L301.423 149H305.703L310.743 161.12H308.223L313.383 149H317.303L311.303 163H307.403ZM318.123 163V149H322.083V163H318.123ZM324.9 163V149H328.16L335.88 158.32H334.34V149H338.22V163H334.96L327.24 153.68H328.78V163H324.9ZM348.013 163.28C346.907 163.28 345.88 163.107 344.933 162.76C343.987 162.4 343.167 161.893 342.473 161.24C341.793 160.587 341.26 159.82 340.873 158.94C340.487 158.047 340.293 157.067 340.293 156C340.293 154.933 340.487 153.96 340.873 153.08C341.26 152.187 341.8 151.413 342.493 150.76C343.187 150.107 344.007 149.607 344.953 149.26C345.913 148.9 346.96 148.72 348.093 148.72C349.413 148.72 350.593 148.94 351.633 149.38C352.673 149.82 353.533 150.453 354.213 151.28L351.693 153.56C351.213 153.04 350.693 152.653 350.133 152.4C349.587 152.133 348.973 152 348.293 152C347.693 152 347.147 152.093 346.653 152.28C346.16 152.467 345.74 152.74 345.393 153.1C345.047 153.447 344.773 153.867 344.573 154.36C344.387 154.84 344.293 155.387 344.293 156C344.293 156.587 344.387 157.127 344.573 157.62C344.773 158.113 345.047 158.54 345.393 158.9C345.74 159.247 346.153 159.52 346.633 159.72C347.127 159.907 347.667 160 348.253 160C348.84 160 349.413 159.907 349.973 159.72C350.533 159.52 351.1 159.187 351.673 158.72L353.893 161.5C353.093 162.073 352.167 162.513 351.113 162.82C350.06 163.127 349.027 163.28 348.013 163.28ZM350.393 160.98V155.7H353.893V161.5L350.393 160.98ZM355.964 158.76V155.84H361.804V158.76H355.964ZM373.518 149H377.478V163H373.518V149ZM368.118 163H364.158V149H368.118V163ZM373.798 157.54H367.838V154.26H373.798V157.54ZM387.331 163.28C386.211 163.28 385.178 163.1 384.231 162.74C383.284 162.38 382.458 161.873 381.751 161.22C381.058 160.553 380.518 159.78 380.131 158.9C379.744 158.02 379.551 157.053 379.551 156C379.551 154.947 379.744 153.98 380.131 153.1C380.518 152.22 381.058 151.453 381.751 150.8C382.458 150.133 383.284 149.62 384.231 149.26C385.178 148.9 386.211 148.72 387.331 148.72C388.464 148.72 389.498 148.9 390.431 149.26C391.378 149.62 392.198 150.133 392.891 150.8C393.584 151.453 394.124 152.22 394.511 153.1C394.911 153.98 395.111 154.947 395.111 156C395.111 157.053 394.911 158.027 394.511 158.92C394.124 159.8 393.584 160.567 392.891 161.22C392.198 161.873 391.378 162.38 390.431 162.74C389.498 163.1 388.464 163.28 387.331 163.28ZM387.331 160C387.864 160 388.358 159.907 388.811 159.72C389.278 159.533 389.678 159.267 390.011 158.92C390.358 158.56 390.624 158.133 390.811 157.64C391.011 157.147 391.111 156.6 391.111 156C391.111 155.387 391.011 154.84 390.811 154.36C390.624 153.867 390.358 153.447 390.011 153.1C389.678 152.74 389.278 152.467 388.811 152.28C388.358 152.093 387.864 152 387.331 152C386.798 152 386.298 152.093 385.831 152.28C385.378 152.467 384.978 152.74 384.631 153.1C384.298 153.447 384.031 153.867 383.831 154.36C383.644 154.84 383.551 155.387 383.551 156C383.551 156.6 383.644 157.147 383.831 157.64C384.031 158.133 384.298 158.56 384.631 158.92C384.978 159.267 385.378 159.533 385.831 159.72C386.298 159.907 386.798 160 387.331 160ZM397.185 163V149H403.585C404.865 149 405.965 149.207 406.885 149.62C407.818 150.033 408.538 150.633 409.045 151.42C409.552 152.193 409.805 153.113 409.805 154.18C409.805 155.233 409.552 156.147 409.045 156.92C408.538 157.68 407.818 158.267 406.885 158.68C405.965 159.08 404.865 159.28 403.585 159.28H399.385L401.145 157.62V163H397.185ZM405.845 163L402.365 157.9H406.585L410.085 163H405.845ZM401.145 158.04L399.385 156.22H403.345C404.172 156.22 404.785 156.04 405.185 155.68C405.598 155.32 405.805 154.82 405.805 154.18C405.805 153.527 405.598 153.02 405.185 152.66C404.785 152.3 404.172 152.12 403.345 152.12H399.385L401.145 150.3V158.04ZM411.99 163V149H415.95V163H411.99ZM418.067 163V160.52L426.307 150.74L426.787 152.14H418.247V149H430.307V151.48L422.067 161.26L421.587 159.86H430.607V163H418.067ZM439.284 163.28C438.164 163.28 437.131 163.1 436.184 162.74C435.238 162.38 434.411 161.873 433.704 161.22C433.011 160.553 432.471 159.78 432.084 158.9C431.698 158.02 431.504 157.053 431.504 156C431.504 154.947 431.698 153.98 432.084 153.1C432.471 152.22 433.011 151.453 433.704 150.8C434.411 150.133 435.238 149.62 436.184 149.26C437.131 148.9 438.164 148.72 439.284 148.72C440.418 148.72 441.451 148.9 442.384 149.26C443.331 149.62 444.151 150.133 444.844 150.8C445.538 151.453 446.078 152.22 446.464 153.1C446.864 153.98 447.064 154.947 447.064 156C447.064 157.053 446.864 158.027 446.464 158.92C446.078 159.8 445.538 160.567 444.844 161.22C444.151 161.873 443.331 162.38 442.384 162.74C441.451 163.1 440.418 163.28 439.284 163.28ZM439.284 160C439.818 160 440.311 159.907 440.764 159.72C441.231 159.533 441.631 159.267 441.964 158.92C442.311 158.56 442.578 158.133 442.764 157.64C442.964 157.147 443.064 156.6 443.064 156C443.064 155.387 442.964 154.84 442.764 154.36C442.578 153.867 442.311 153.447 441.964 153.1C441.631 152.74 441.231 152.467 440.764 152.28C440.311 152.093 439.818 152 439.284 152C438.751 152 438.251 152.093 437.784 152.28C437.331 152.467 436.931 152.74 436.584 153.1C436.251 153.447 435.984 153.867 435.784 154.36C435.598 154.84 435.504 155.387 435.504 156C435.504 156.6 435.598 157.147 435.784 157.64C435.984 158.133 436.251 158.56 436.584 158.92C436.931 159.267 437.331 159.533 437.784 159.72C438.251 159.907 438.751 160 439.284 160ZM449.138 163V149H452.398L460.118 158.32H458.578V149H462.458V163H459.198L451.478 153.68H453.018V163H449.138ZM7.32 187.28C6.17333 187.28 5.06667 187.14 4 186.86C2.94667 186.567 2.08667 186.193 1.42 185.74L2.72 182.82C3.34667 183.22 4.06667 183.553 4.88 183.82C5.70667 184.073 6.52667 184.2 7.34 184.2C7.88667 184.2 8.32667 184.153 8.66 184.06C8.99333 183.953 9.23333 183.82 9.38 183.66C9.54 183.487 9.62 183.287 9.62 183.06C9.62 182.74 9.47333 182.487 9.18 182.3C8.88667 182.113 8.50667 181.96 8.04 181.84C7.57333 181.72 7.05333 181.6 6.48 181.48C5.92 181.36 5.35333 181.207 4.78 181.02C4.22 180.833 3.70667 180.593 3.24 180.3C2.77333 179.993 2.39333 179.6 2.1 179.12C1.80667 178.627 1.66 178.007 1.66 177.26C1.66 176.42 1.88667 175.66 2.34 174.98C2.80667 174.3 3.5 173.753 4.42 173.34C5.34 172.927 6.48667 172.72 7.86 172.72C8.78 172.72 9.68 172.827 10.56 173.04C11.4533 173.24 12.2467 173.54 12.94 173.94L11.72 176.88C11.0533 176.52 10.3933 176.253 9.74 176.08C9.08667 175.893 8.45333 175.8 7.84 175.8C7.29333 175.8 6.85333 175.86 6.52 175.98C6.18667 176.087 5.94667 176.233 5.8 176.42C5.65333 176.607 5.58 176.82 5.58 177.06C5.58 177.367 5.72 177.613 6 177.8C6.29333 177.973 6.67333 178.12 7.14 178.24C7.62 178.347 8.14 178.46 8.7 178.58C9.27333 178.7 9.84 178.853 10.4 179.04C10.9733 179.213 11.4933 179.453 11.96 179.76C12.4267 180.053 12.8 180.447 13.08 180.94C13.3733 181.42 13.52 182.027 13.52 182.76C13.52 183.573 13.2867 184.327 12.82 185.02C12.3667 185.7 11.68 186.247 10.76 186.66C9.85333 187.073 8.70667 187.28 7.32 187.28ZM15.3492 187V173H19.3092V187H15.3492ZM22.1266 187V173H25.3866L31.1866 182.52H29.4666L35.1066 173H38.3666L38.4066 187H34.7666L34.7266 178.54H35.3466L31.1266 185.62H29.3666L25.0266 178.54H25.7866V187H22.1266ZM47.6686 187.28C45.6019 187.28 43.9886 186.713 42.8286 185.58C41.6686 184.447 41.0886 182.84 41.0886 180.76V173H45.0486V180.64C45.0486 181.84 45.2819 182.7 45.7486 183.22C46.2286 183.74 46.8819 184 47.7086 184C48.5353 184 49.1819 183.74 49.6486 183.22C50.1153 182.7 50.3486 181.84 50.3486 180.64V173H54.2486V180.76C54.2486 182.84 53.6686 184.447 52.5086 185.58C51.3486 186.713 49.7353 187.28 47.6686 187.28ZM56.9313 187V173H60.8913V183.86H67.5713V187H56.9313ZM70.8097 187V176.14H66.5097V173H79.0497V176.14H74.7697V187H70.8097ZM78.1419 187L84.3219 173H88.2219L94.4219 187H90.3019L85.4619 174.94H87.0219L82.1819 187H78.1419ZM81.5219 184.28L82.5419 181.36H89.3819L90.4019 184.28H81.5219ZM95.5445 187V173H98.8045L106.525 182.32H104.985V173H108.865V187H105.605L97.8845 177.68H99.4245V187H95.5445ZM115.298 178.42H121.798V181.38H115.298V178.42ZM115.578 183.94H122.898V187H111.658V173H122.638V176.06H115.578V183.94ZM132.155 187.28C131.035 187.28 130.002 187.1 129.055 186.74C128.109 186.38 127.282 185.873 126.575 185.22C125.882 184.553 125.342 183.78 124.955 182.9C124.569 182.02 124.375 181.053 124.375 180C124.375 178.947 124.569 177.98 124.955 177.1C125.342 176.22 125.882 175.453 126.575 174.8C127.282 174.133 128.109 173.62 129.055 173.26C130.002 172.9 131.035 172.72 132.155 172.72C133.289 172.72 134.322 172.9 135.255 173.26C136.202 173.62 137.022 174.133 137.715 174.8C138.409 175.453 138.949 176.22 139.335 177.1C139.735 177.98 139.935 178.947 139.935 180C139.935 181.053 139.735 182.027 139.335 182.92C138.949 183.8 138.409 184.567 137.715 185.22C137.022 185.873 136.202 186.38 135.255 186.74C134.322 187.1 133.289 187.28 132.155 187.28ZM132.155 184C132.689 184 133.182 183.907 133.635 183.72C134.102 183.533 134.502 183.267 134.835 182.92C135.182 182.56 135.449 182.133 135.635 181.64C135.835 181.147 135.935 180.6 135.935 180C135.935 179.387 135.835 178.84 135.635 178.36C135.449 177.867 135.182 177.447 134.835 177.1C134.502 176.74 134.102 176.467 133.635 176.28C133.182 176.093 132.689 176 132.155 176C131.622 176 131.122 176.093 130.655 176.28C130.202 176.467 129.802 176.74 129.455 177.1C129.122 177.447 128.855 177.867 128.655 178.36C128.469 178.84 128.375 179.387 128.375 180C128.375 180.6 128.469 181.147 128.655 181.64C128.855 182.133 129.122 182.56 129.455 182.92C129.802 183.267 130.202 183.533 130.655 183.72C131.122 183.907 131.622 184 132.155 184ZM148.469 187.28C146.403 187.28 144.789 186.713 143.629 185.58C142.469 184.447 141.889 182.84 141.889 180.76V173H145.849V180.64C145.849 181.84 146.083 182.7 146.549 183.22C147.029 183.74 147.683 184 148.509 184C149.336 184 149.983 183.74 150.449 183.22C150.916 182.7 151.149 181.84 151.149 180.64V173H155.049V180.76C155.049 182.84 154.469 184.447 153.309 185.58C152.149 186.713 150.536 187.28 148.469 187.28ZM162.652 187.28C161.505 187.28 160.399 187.14 159.332 186.86C158.279 186.567 157.419 186.193 156.752 185.74L158.052 182.82C158.679 183.22 159.399 183.553 160.212 183.82C161.039 184.073 161.859 184.2 162.672 184.2C163.219 184.2 163.659 184.153 163.992 184.06C164.325 183.953 164.565 183.82 164.712 183.66C164.872 183.487 164.952 183.287 164.952 183.06C164.952 182.74 164.805 182.487 164.512 182.3C164.219 182.113 163.839 181.96 163.372 181.84C162.905 181.72 162.385 181.6 161.812 181.48C161.252 181.36 160.685 181.207 160.112 181.02C159.552 180.833 159.039 180.593 158.572 180.3C158.105 179.993 157.725 179.6 157.432 179.12C157.139 178.627 156.992 178.007 156.992 177.26C156.992 176.42 157.219 175.66 157.672 174.98C158.139 174.3 158.832 173.753 159.752 173.34C160.672 172.927 161.819 172.72 163.192 172.72C164.112 172.72 165.012 172.827 165.892 173.04C166.785 173.24 167.579 173.54 168.272 173.94L167.052 176.88C166.385 176.52 165.725 176.253 165.072 176.08C164.419 175.893 163.785 175.8 163.172 175.8C162.625 175.8 162.185 175.86 161.852 175.98C161.519 176.087 161.279 176.233 161.132 176.42C160.985 176.607 160.912 176.82 160.912 177.06C160.912 177.367 161.052 177.613 161.332 177.8C161.625 177.973 162.005 178.12 162.472 178.24C162.952 178.347 163.472 178.46 164.032 178.58C164.605 178.7 165.172 178.853 165.732 179.04C166.305 179.213 166.825 179.453 167.292 179.76C167.759 180.053 168.132 180.447 168.412 180.94C168.705 181.42 168.852 182.027 168.852 182.76C168.852 183.573 168.619 184.327 168.152 185.02C167.699 185.7 167.012 186.247 166.092 186.66C165.185 187.073 164.039 187.28 162.652 187.28ZM176.502 187V173H180.462V187H176.502ZM183.279 187V173H186.539L194.259 182.32H192.719V173H196.599V187H193.339L185.619 177.68H187.159V187H183.279ZM199.392 187V173H205.792C207.072 173 208.172 173.207 209.092 173.62C210.026 174.033 210.746 174.633 211.252 175.42C211.759 176.193 212.012 177.113 212.012 178.18C212.012 179.233 211.759 180.147 211.252 180.92C210.746 181.693 210.026 182.293 209.092 182.72C208.172 183.133 207.072 183.34 205.792 183.34H201.592L203.352 181.62V187H199.392ZM203.352 182.04L201.592 180.22H205.552C206.379 180.22 206.992 180.04 207.392 179.68C207.806 179.32 208.012 178.82 208.012 178.18C208.012 177.527 207.806 177.02 207.392 176.66C206.992 176.3 206.379 176.12 205.552 176.12H201.592L203.352 174.3V182.04ZM220.266 187.28C218.2 187.28 216.586 186.713 215.426 185.58C214.266 184.447 213.686 182.84 213.686 180.76V173H217.646V180.64C217.646 181.84 217.88 182.7 218.346 183.22C218.826 183.74 219.48 184 220.306 184C221.133 184 221.78 183.74 222.246 183.22C222.713 182.7 222.946 181.84 222.946 180.64V173H226.846V180.76C226.846 182.84 226.266 184.447 225.106 185.58C223.946 186.713 222.333 187.28 220.266 187.28ZM232.294 187V176.14H227.994V173H240.534V176.14H236.254V187H232.294ZM240.808 182.76V179.84H246.648V182.76H240.808ZM246.794 187L252.974 173H256.874L263.074 187H258.954L254.114 174.94H255.674L250.834 187H246.794ZM250.174 184.28L251.194 181.36H258.034L259.054 184.28H250.174ZM264.197 187V173H267.457L275.177 182.32H273.637V173H277.517V187H274.257L266.537 177.68H268.077V187H264.197ZM280.31 187V173H286.93C288.477 173 289.837 173.287 291.01 173.86C292.183 174.433 293.097 175.24 293.75 176.28C294.417 177.32 294.75 178.56 294.75 180C294.75 181.427 294.417 182.667 293.75 183.72C293.097 184.76 292.183 185.567 291.01 186.14C289.837 186.713 288.477 187 286.93 187H280.31ZM284.27 183.84H286.77C287.57 183.84 288.263 183.693 288.85 183.4C289.45 183.093 289.917 182.653 290.25 182.08C290.583 181.493 290.75 180.8 290.75 180C290.75 179.187 290.583 178.493 290.25 177.92C289.917 177.347 289.45 176.913 288.85 176.62C288.263 176.313 287.57 176.16 286.77 176.16H284.27V183.84ZM296.433 182.76V179.84H302.273V182.76H296.433ZM309.312 187.28C308.166 187.28 307.059 187.14 305.992 186.86C304.939 186.567 304.079 186.193 303.412 185.74L304.712 182.82C305.339 183.22 306.059 183.553 306.872 183.82C307.699 184.073 308.519 184.2 309.332 184.2C309.879 184.2 310.319 184.153 310.652 184.06C310.986 183.953 311.226 183.82 311.372 183.66C311.532 183.487 311.612 183.287 311.612 183.06C311.612 182.74 311.466 182.487 311.172 182.3C310.879 182.113 310.499 181.96 310.032 181.84C309.566 181.72 309.046 181.6 308.472 181.48C307.912 181.36 307.346 181.207 306.772 181.02C306.212 180.833 305.699 180.593 305.232 180.3C304.766 179.993 304.386 179.6 304.092 179.12C303.799 178.627 303.652 178.007 303.652 177.26C303.652 176.42 303.879 175.66 304.332 174.98C304.799 174.3 305.492 173.753 306.412 173.34C307.332 172.927 308.479 172.72 309.852 172.72C310.772 172.72 311.672 172.827 312.552 173.04C313.446 173.24 314.239 173.54 314.932 173.94L313.712 176.88C313.046 176.52 312.386 176.253 311.732 176.08C311.079 175.893 310.446 175.8 309.832 175.8C309.286 175.8 308.846 175.86 308.512 175.98C308.179 176.087 307.939 176.233 307.792 176.42C307.646 176.607 307.572 176.82 307.572 177.06C307.572 177.367 307.712 177.613 307.992 177.8C308.286 177.973 308.666 178.12 309.132 178.24C309.612 178.347 310.132 178.46 310.692 178.58C311.266 178.7 311.832 178.853 312.392 179.04C312.966 179.213 313.486 179.453 313.952 179.76C314.419 180.053 314.792 180.447 315.072 180.94C315.366 181.42 315.512 182.027 315.512 182.76C315.512 183.573 315.279 184.327 314.812 185.02C314.359 185.7 313.672 186.247 312.752 186.66C311.846 187.073 310.699 187.28 309.312 187.28ZM320.126 187V176.14H315.826V173H328.366V176.14H324.086V187H320.126ZM327.458 187L333.638 173H337.538L343.738 187H339.618L334.778 174.94H336.338L331.498 187H327.458ZM330.838 184.28L331.858 181.36H338.698L339.718 184.28H330.838ZM347.138 187V176.14H342.838V173H355.378V176.14H351.098V187H347.138ZM360.493 178.42H366.993V181.38H360.493V178.42ZM360.773 183.94H368.093V187H356.853V173H367.833V176.06H360.773V183.94ZM379.751 178.42H386.251V181.38H379.751V178.42ZM380.031 183.94H387.351V187H376.111V173H387.091V176.06H380.031V183.94ZM394.468 187.28C393.322 187.28 392.215 187.14 391.148 186.86C390.095 186.567 389.235 186.193 388.568 185.74L389.868 182.82C390.495 183.22 391.215 183.553 392.028 183.82C392.855 184.073 393.675 184.2 394.488 184.2C395.035 184.2 395.475 184.153 395.808 184.06C396.142 183.953 396.382 183.82 396.528 183.66C396.688 183.487 396.768 183.287 396.768 183.06C396.768 182.74 396.622 182.487 396.328 182.3C396.035 182.113 395.655 181.96 395.188 181.84C394.722 181.72 394.202 181.6 393.628 181.48C393.068 181.36 392.502 181.207 391.928 181.02C391.368 180.833 390.855 180.593 390.388 180.3C389.922 179.993 389.542 179.6 389.248 179.12C388.955 178.627 388.808 178.007 388.808 177.26C388.808 176.42 389.035 175.66 389.488 174.98C389.955 174.3 390.648 173.753 391.568 173.34C392.488 172.927 393.635 172.72 395.008 172.72C395.928 172.72 396.828 172.827 397.708 173.04C398.602 173.24 399.395 173.54 400.088 173.94L398.868 176.88C398.202 176.52 397.542 176.253 396.888 176.08C396.235 175.893 395.602 175.8 394.988 175.8C394.442 175.8 394.002 175.86 393.668 175.98C393.335 176.087 393.095 176.233 392.948 176.42C392.802 176.607 392.728 176.82 392.728 177.06C392.728 177.367 392.868 177.613 393.148 177.8C393.442 177.973 393.822 178.12 394.288 178.24C394.768 178.347 395.288 178.46 395.848 178.58C396.422 178.7 396.988 178.853 397.548 179.04C398.122 179.213 398.642 179.453 399.108 179.76C399.575 180.053 399.948 180.447 400.228 180.94C400.522 181.42 400.668 182.027 400.668 182.76C400.668 183.573 400.435 184.327 399.968 185.02C399.515 185.7 398.828 186.247 397.908 186.66C397.002 187.073 395.855 187.28 394.468 187.28ZM405.282 187V176.14H400.982V173H413.522V176.14H409.242V187H405.282ZM414.998 187V173H418.958V187H414.998ZM421.775 187V173H425.035L430.835 182.52H429.115L434.755 173H438.015L438.055 187H434.415L434.375 178.54H434.995L430.775 185.62H429.015L424.675 178.54H425.435V187H421.775ZM439.177 187L445.357 173H449.257L455.457 187H451.337L446.497 174.94H448.057L443.217 187H439.177ZM442.557 184.28L443.577 181.36H450.417L451.437 184.28H442.557ZM458.857 187V176.14H454.557V173H467.097V176.14H462.817V187H458.857ZM468.572 187V173H472.532V187H468.572ZM482.409 187.28C481.289 187.28 480.256 187.1 479.309 186.74C478.363 186.38 477.536 185.873 476.829 185.22C476.136 184.553 475.596 183.78 475.209 182.9C474.823 182.02 474.629 181.053 474.629 180C474.629 178.947 474.823 177.98 475.209 177.1C475.596 176.22 476.136 175.453 476.829 174.8C477.536 174.133 478.363 173.62 479.309 173.26C480.256 172.9 481.289 172.72 482.409 172.72C483.543 172.72 484.576 172.9 485.509 173.26C486.456 173.62 487.276 174.133 487.969 174.8C488.663 175.453 489.203 176.22 489.589 177.1C489.989 177.98 490.189 178.947 490.189 180C490.189 181.053 489.989 182.027 489.589 182.92C489.203 183.8 488.663 184.567 487.969 185.22C487.276 185.873 486.456 186.38 485.509 186.74C484.576 187.1 483.543 187.28 482.409 187.28ZM482.409 184C482.943 184 483.436 183.907 483.889 183.72C484.356 183.533 484.756 183.267 485.089 182.92C485.436 182.56 485.703 182.133 485.889 181.64C486.089 181.147 486.189 180.6 486.189 180C486.189 179.387 486.089 178.84 485.889 178.36C485.703 177.867 485.436 177.447 485.089 177.1C484.756 176.74 484.356 176.467 483.889 176.28C483.436 176.093 482.943 176 482.409 176C481.876 176 481.376 176.093 480.909 176.28C480.456 176.467 480.056 176.74 479.709 177.1C479.376 177.447 479.109 177.867 478.909 178.36C478.723 178.84 478.629 179.387 478.629 180C478.629 180.6 478.723 181.147 478.909 181.64C479.109 182.133 479.376 182.56 479.709 182.92C480.056 183.267 480.456 183.533 480.909 183.72C481.376 183.907 481.876 184 482.409 184ZM492.263 187V173H495.523L503.243 182.32H501.703V173H505.583V187H502.323L494.603 177.68H496.143V187H492.263Z" fill="black"/>
</svg>
